<svg version="1.2" xmlns="http://www.w3.org/2000/svg" xmlns:xlink="http://www.w3.org/1999/xlink" overflow="visible" preserveAspectRatio="none" viewBox="0 0 32 32" xml:space="preserve" y="0px" x="0px" id="Layer_1_1588194074809" width="30" height="30">
  <g transform="translate(1, 1)">
    <polygon points="15,2.5 3,2.6 3,27.6 15,27.5" style="stroke-linecap:round;stroke-linejoin:round;stroke-miterlimit:10;" vector-effect="non-scaling-stroke" />
    <rect height="2" width="2" style="stroke-miterlimit:10;" y="5.5" x="10" vector-effect="non-scaling-stroke" />
    <rect height="2" width="2" style="stroke-miterlimit:10;" y="9.5" x="10" vector-effect="non-scaling-stroke" />
    <rect height="2" width="2" style="stroke-miterlimit:10;" y="13.5" x="10" vector-effect="non-scaling-stroke" />
    <rect height="2" width="2" style="stroke-miterlimit:10;" y="5.5" x="6" vector-effect="non-scaling-stroke" />
    <rect height="2" width="2" style="stroke-miterlimit:10;" y="9.5" x="6" vector-effect="non-scaling-stroke" />
    <rect height="2" width="2" style="stroke-miterlimit:10;" y="13.5" x="6" vector-effect="non-scaling-stroke" />
    <rect height="2" width="2" style="stroke-miterlimit:10;" y="17.4" x="10" vector-effect="non-scaling-stroke" />
    <rect height="2" width="2" style="stroke-miterlimit:10;" y="17.4" x="6" vector-effect="non-scaling-stroke" />
    <polyline points="11.5,27.7 11.5,21.4 6.5,21.4 6.5,27.7" style="stroke-miterlimit:10;" vector-effect="non-scaling-stroke" />
    <polygon points="27,6.5 15,6.5 15,27.6 27,27.5" style="stroke-linecap:round;stroke-linejoin:round;stroke-miterlimit:10;" vector-effect="non-scaling-stroke" />
    <rect height="2" width="2" style="stroke-miterlimit:10;" y="9.5" x="22" vector-effect="non-scaling-stroke" />
    <rect height="2" width="2" style="stroke-miterlimit:10;" y="13.5" x="22" vector-effect="non-scaling-stroke" />
    <rect height="2" width="2" style="stroke-miterlimit:10;" y="9.5" x="18" vector-effect="non-scaling-stroke" />
    <rect height="2" width="2" style="stroke-miterlimit:10;" y="13.5" x="18" vector-effect="non-scaling-stroke" />
    <rect height="2" width="2" style="stroke-miterlimit:10;" y="17.4" x="22" vector-effect="non-scaling-stroke" />
    <rect height="2" width="2" style="stroke-miterlimit:10;" y="17.4" x="18" vector-effect="non-scaling-stroke" />
    <g>
      <line y2="22.4" x2="27" y1="22.4" x1="15" style="stroke-miterlimit:10;" vector-effect="non-scaling-stroke" />
    </g>
  </g>
</svg>
