<svg width="107" height="28" viewBox="0 0 107 28" fill="none" xmlns="http://www.w3.org/2000/svg">
<path d="M5.90551 23.4269C12.6122 23.4269 21.8905 27.2034 28.6227 27.2034C33.4269 27.2034 38.1141 25.922 40.7817 24.0331C40.9678 22.9243 41.0668 21.787 41.0668 20.6242C41.0668 9.35339 31.9295 0.2146 20.6572 0.2146C9.38488 0.2146 0.246094 9.35339 0.246094 20.6257C0.246094 21.7735 0.342118 22.8988 0.525164 23.9955C1.26035 23.859 3.76147 23.4269 5.90701 23.4269H5.90551Z" fill="white"/>
<path d="M98.9994 27.4269H51.7886V28H98.9994V27.4269Z" fill="#E3A82B"/>
<path d="M52.9991 6.97076C52.9991 6.01202 52.9316 5.75845 52.2849 5.70594L51.8348 5.67443C51.7613 5.61592 51.7823 5.35635 51.8498 5.35035C52.6255 5.28133 53.6038 5.24683 54.9406 5.24683C55.8468 5.24683 56.7095 5.31134 57.3562 5.60992C57.9743 5.88148 58.4485 6.39911 58.4485 7.22882C58.4485 8.16206 57.8438 8.64067 56.9826 9.00377C56.9826 9.1328 57.0981 9.17181 57.2557 9.19731C58.0314 9.32635 59.1821 9.97451 59.1821 11.3609C59.1821 12.8627 57.9458 13.874 55.3577 13.874C54.9406 13.874 54.2369 13.835 53.6323 13.835C53.0276 13.835 52.5115 13.8605 51.9788 13.874C51.8933 13.835 51.8633 13.6279 51.9503 13.5499L52.2099 13.5109C52.9721 13.3939 53.0006 13.2513 53.0006 11.892V6.97076H52.9991ZM54.1784 8.69319C54.1784 9.05628 54.1934 9.08179 54.9256 9.05628C56.3915 9.00377 57.1821 8.61517 57.1821 7.39836C57.1821 6.18156 56.1319 5.65043 55.0396 5.65043C54.723 5.65043 54.507 5.67593 54.3779 5.72845C54.2339 5.76746 54.1769 5.83197 54.1769 6.06453V8.69319H54.1784ZM54.1784 11.6984C54.1784 12.1651 54.2069 12.8252 54.48 13.1103C54.753 13.4074 55.1851 13.4734 55.6158 13.4734C56.8956 13.4734 57.8723 12.9558 57.8723 11.6609C57.8723 10.6377 57.2977 9.44638 55.0111 9.44638C54.2354 9.44638 54.1769 9.5244 54.1769 9.78246V11.6984H54.1784Z" fill="#234075"/>
<path d="M69.1718 8.24606C69.1718 7.07276 69.1478 6.88522 68.4231 6.8297L68.1155 6.8072C68.042 6.76369 68.066 6.56414 68.1395 6.53113C68.7532 6.55363 69.1703 6.56414 69.6864 6.56414C70.2026 6.56414 70.5956 6.55363 71.2093 6.53113C71.2828 6.56414 71.3068 6.76369 71.2333 6.8072L70.9272 6.8297C70.2025 6.88522 70.1785 7.07276 70.1785 8.24606V12.1845C70.1785 13.3578 70.2025 13.5124 70.9272 13.5889L71.2333 13.6219C71.3068 13.6654 71.2828 13.865 71.2093 13.898C70.5956 13.8755 70.1785 13.865 69.6864 13.865C69.1703 13.865 68.7532 13.8755 68.1395 13.898C68.066 13.865 68.0405 13.6879 68.1155 13.6219L68.4231 13.5889C69.1478 13.5109 69.1718 13.3563 69.1718 12.1845V8.24606Z" fill="#234075"/>
<path d="M75.9836 12.2056C75.9836 13.3669 76.0061 13.5334 76.6738 13.5889L77.0414 13.6219C77.1104 13.6654 77.0879 13.865 77.0189 13.898C76.3632 13.8755 75.9716 13.865 75.511 13.865C75.0504 13.865 74.6483 13.8755 73.9116 13.898C73.8426 13.865 73.8186 13.6775 73.9116 13.6219L74.3257 13.5889C74.9814 13.5334 75.0384 13.3669 75.0384 12.2056V7.26035C75.0384 6.91826 75.0384 6.90626 74.6933 6.90626H74.0602C73.565 6.90626 72.9334 6.92876 72.6453 7.18233C72.3692 7.42539 72.2537 7.66845 72.1277 7.94602C72.0347 8.01203 71.8741 7.95652 71.8291 7.868C72.0121 7.36987 72.1862 6.6617 72.2657 6.22059C72.3002 6.19808 72.4503 6.18758 72.4848 6.22059C72.5538 6.57467 72.9334 6.56417 73.463 6.56417H78.1217C78.7428 6.56417 78.8464 6.54167 79.0189 6.25509C79.0759 6.23259 79.2034 6.24459 79.2259 6.2881C79.0999 6.74122 79.0189 7.63844 79.0534 7.97002C79.0069 8.05855 78.8118 8.05855 78.7548 7.99253C78.7203 7.71646 78.6393 7.30686 78.4668 7.18533C78.2027 6.99778 77.7646 6.90926 77.1329 6.90926H76.3167C75.9716 6.90926 75.9836 6.91976 75.9836 7.28585V12.2086V12.2056Z" fill="#234075"/>
<path d="M80.9153 8.24606C80.9153 7.07276 80.8913 6.88522 80.1666 6.8297L79.859 6.8072C79.7855 6.76369 79.8095 6.56414 79.883 6.53113C80.4967 6.55363 80.9138 6.56414 81.4299 6.56414C81.9461 6.56414 82.3377 6.55363 82.9528 6.53113C83.0263 6.56414 83.0518 6.76369 82.9783 6.8072L82.6707 6.8297C81.9461 6.88522 81.9221 7.07276 81.9221 8.24606V12.1845C81.9221 13.3578 81.9461 13.5124 82.6707 13.5889L82.9783 13.6219C83.0518 13.6654 83.0278 13.865 82.9528 13.898C82.3392 13.8755 81.922 13.865 81.4299 13.865C80.9138 13.865 80.4967 13.8755 79.883 13.898C79.8095 13.865 79.7855 13.6879 79.859 13.6219L80.1666 13.5889C80.8913 13.5109 80.9153 13.3563 80.9153 12.1845V8.24606Z" fill="#234075"/>
<path d="M86.4169 14.012C85.3201 14.012 84.6285 13.7239 84.3809 13.6024C84.2249 13.3593 84.0538 12.5731 84.0283 12.054C84.0943 11.976 84.2894 11.955 84.3419 12.021C84.5385 12.5851 85.0726 13.6684 86.5865 13.6684C87.6832 13.6684 88.2174 13.0607 88.2174 12.3961C88.2174 11.9099 88.1003 11.3668 87.1476 10.8477L85.9083 10.162C85.2556 9.79742 84.4979 9.16576 84.4979 8.25953C84.4979 7.20927 85.4642 6.35706 87.1611 6.35706C87.5662 6.35706 88.0358 6.42307 88.3749 6.50109C88.5445 6.5446 88.7275 6.56711 88.831 6.56711C88.9481 6.83267 89.0666 7.45233 89.0666 7.91745C89.0141 7.98346 88.8055 8.01647 88.7395 7.95045C88.57 7.41932 88.2174 6.70064 86.9646 6.70064C85.7117 6.70064 85.4117 7.41932 85.4117 7.92795C85.4117 8.57011 86.0388 9.03523 86.5204 9.28879L87.5647 9.84243C88.3869 10.2745 89.1971 10.9152 89.1971 11.967C89.1971 13.1838 88.1138 14.0135 86.4169 14.0135V14.012Z" fill="#234075"/>
<path d="M92.9875 10.2925C92.4158 10.2925 92.3933 10.315 92.3933 10.6466V12.207C92.3933 13.3683 92.4533 13.5228 93.1195 13.5904L93.4646 13.6234C93.5366 13.6669 93.5126 13.8664 93.4406 13.8994C92.7984 13.8769 92.3933 13.8664 91.9282 13.8664C91.4166 13.8664 91.0115 13.8889 90.5478 13.8994C90.4773 13.8664 90.4533 13.6894 90.5238 13.6234L90.7264 13.5904C91.3941 13.4793 91.4166 13.3683 91.4166 12.207V8.22502C91.4166 7.06373 91.334 6.87618 90.7144 6.83117L90.4053 6.80866C90.3333 6.76515 90.3573 6.5656 90.4293 6.53259C91.013 6.5431 91.4166 6.5656 91.9297 6.5656C92.3948 6.5656 92.7984 6.5551 93.31 6.53259C93.382 6.5656 93.4046 6.76515 93.334 6.80866L93.1075 6.83117C92.4173 6.89718 92.3933 7.06373 92.3933 8.22502V9.49733C92.3933 9.83942 92.4173 9.85142 92.9875 9.85142H96.3918C96.9634 9.85142 96.9874 9.84092 96.9874 9.49733V8.22502C96.9874 7.06373 96.9634 6.89718 96.2613 6.83117L96.0347 6.80866C95.9627 6.76515 95.9867 6.5656 96.0587 6.53259C96.6064 6.5551 97.0115 6.5656 97.4991 6.5656C97.9867 6.5656 98.3678 6.5551 98.9034 6.53259C98.9754 6.5656 98.9979 6.76515 98.9274 6.80866L98.6784 6.83117C97.9882 6.89718 97.9642 7.06373 97.9642 8.22502V12.207C97.9642 13.3683 97.9882 13.5123 98.6784 13.5904L98.9634 13.6234C99.034 13.6669 99.0115 13.8664 98.9394 13.8994C98.3678 13.8769 97.9627 13.8664 97.4991 13.8664C97.0115 13.8664 96.5823 13.8769 96.0587 13.8994C95.9867 13.8664 95.9642 13.6894 96.0347 13.6234L96.2613 13.5904C96.9875 13.4793 96.9874 13.3683 96.9874 12.207V10.6466C96.9874 10.315 96.9634 10.2925 96.3918 10.2925H92.9875Z" fill="#234075"/>
<path d="M46.186 16.3285C47.1643 15.5678 48.4111 15.1927 49.8049 15.1927C50.5281 15.1927 51.5468 15.3398 52.177 15.5138C52.3375 15.5543 52.4321 15.5813 52.5521 15.5678C52.5656 15.8754 52.6331 16.7156 52.7396 17.5318C52.6721 17.6249 52.4711 17.6384 52.3781 17.5588C52.177 16.6511 51.5739 15.6084 49.6309 15.6084C47.5799 15.6084 45.8379 16.9047 45.8379 19.6684C45.8379 22.4321 47.6204 24.0225 49.8184 24.0225C51.5468 24.0225 52.312 22.9002 52.6196 22.1125C52.7141 22.0465 52.9152 22.072 52.9677 22.1665C52.8747 22.8612 52.5251 23.7419 52.324 23.997C52.1635 24.024 52.003 24.0765 51.8544 24.1305C51.5588 24.237 50.5941 24.4381 49.7374 24.4381C48.5311 24.4381 47.3788 24.198 46.4006 23.5438C45.3278 22.8087 44.4966 21.5949 44.4966 19.8709C44.4966 18.3885 45.1673 17.1192 46.186 16.3315V16.3285Z" fill="#234075"/>
<path d="M53.5171 20.6496C53.5171 18.4366 55.259 16.7441 57.6521 16.7441C60.3348 16.7441 61.6821 18.5911 61.6821 20.5386C61.6821 22.7726 59.8937 24.3991 57.6521 24.3991C55.073 24.3991 53.5171 22.6406 53.5171 20.6481V20.6496ZM60.5208 20.8822C60.5208 19.0562 59.6731 17.0877 57.4541 17.0877C56.2463 17.0877 54.6784 17.8739 54.6784 20.2955C54.6784 21.9324 55.5141 24.057 57.8022 24.057C59.196 24.057 60.5208 23.0607 60.5208 20.8822Z" fill="#234075"/>
<path d="M74.7863 19.6984C74.7863 19.0127 74.7623 17.7404 74.5628 17.4088C74.4802 17.2753 74.2702 17.1988 73.9761 17.1763L73.6835 17.1538C73.613 17.0757 73.637 16.9332 73.706 16.8882C74.1517 16.9107 74.5853 16.9212 75.0429 16.9212C75.535 16.9212 75.8516 16.9092 76.2747 16.8882C76.3677 16.9437 76.3572 17.0877 76.2987 17.1538L76.0166 17.1763C75.724 17.1988 75.5005 17.2978 75.43 17.4418C75.2664 17.8064 75.2664 19.0787 75.2664 19.6984V20.9482C75.2664 21.9114 75.1014 22.9287 74.4457 23.5919C73.9416 24.1125 73.0744 24.3991 72.2057 24.3991C71.397 24.3991 70.5868 24.255 70.0121 23.7914C69.391 23.3053 69.0969 22.4966 69.0969 21.1808V18.5701C69.0969 17.4193 69.0729 17.2318 68.3932 17.1763L68.0991 17.1538C68.0286 17.1102 68.0526 16.9212 68.1216 16.8882C68.7083 16.9107 69.1074 16.9212 69.5755 16.9212C70.0436 16.9212 70.4427 16.9092 71.0174 16.8882C71.0879 16.9212 71.1119 17.1087 71.0414 17.1538L70.7593 17.1763C70.0796 17.2318 70.0556 17.4193 70.0556 18.5701V20.9602C70.0556 22.7411 70.6423 23.9144 72.4367 23.9144C74.1366 23.9144 74.7818 22.6526 74.7818 20.9722V19.6999L74.7863 19.6984Z" fill="#234075"/>
<path d="M88.4154 18.3165C88.4154 17.4898 88.3629 17.2768 87.7807 17.2333L87.3651 17.1928C87.3186 17.1508 87.2931 16.9257 87.3786 16.9197C88.0793 16.8672 88.96 16.8312 90.1648 16.8312C90.981 16.8312 91.7582 16.8867 92.3419 17.1433C92.8985 17.3788 93.3261 17.8244 93.3261 18.5401C93.3261 19.3443 92.7815 19.7584 92.0043 20.0705C92.0043 20.183 92.1078 20.216 92.2503 20.2385C92.951 20.3496 93.9878 20.9092 93.9878 22.105C93.9878 23.4013 92.873 24.273 90.5399 24.273C90.1648 24.273 89.5287 24.24 88.984 24.24C88.4394 24.24 87.9728 24.2625 87.4942 24.273C87.4161 24.24 87.3906 24.0615 87.4687 23.994L87.7012 23.961C88.3884 23.8604 88.4139 23.7374 88.4139 22.5641V18.318L88.4154 18.3165ZM89.4777 19.8019C89.4777 20.1155 89.4912 20.138 90.1513 20.1155C91.4732 20.0705 92.1858 19.7359 92.1858 18.6856C92.1858 17.6354 91.2406 17.1778 90.2548 17.1778C89.9698 17.1778 89.7747 17.2003 89.6592 17.2453C89.5287 17.2783 89.4777 17.3338 89.4777 17.5364V19.8049V19.8019ZM89.4777 22.3946C89.4777 22.7967 89.5032 23.3668 89.7492 23.6129C89.9953 23.8694 90.3839 23.925 90.7725 23.925C91.9263 23.925 92.807 23.4778 92.807 22.3601C92.807 21.4778 92.2894 20.4501 90.2278 20.4501C89.5272 20.4501 89.4762 20.5161 89.4762 20.7412V22.3946H89.4777Z" fill="#234075"/>
<path d="M67.2946 13.6219L66.9871 13.5949C66.9255 13.5889 66.87 13.5799 66.8175 13.5724C66.3689 13.4929 66.1889 13.0923 65.9773 12.7217L64.915 10.8732C64.732 10.5657 64.5354 10.1501 64.1153 10.0915C65.2031 9.961 66.1874 9.33235 66.1874 8.25508C66.1874 7.00976 64.9555 6.45312 63.7087 6.45312C62.9615 6.45312 62.2804 6.47263 61.5197 6.47263C61.1011 6.47263 60.6015 6.45312 60.1814 6.45312C59.9488 6.45312 59.9458 6.50114 59.9458 6.63017C59.9458 6.82222 60.0268 6.7682 60.2744 6.78321C61.1596 6.83272 61.1266 6.99776 61.1266 7.75695V12.6047C61.1266 13.2978 61.1866 13.5049 60.4574 13.5709C60.4574 13.5709 60.3464 13.5829 60.2819 13.5889L59.9728 13.6204C59.8993 13.6864 59.9233 13.8635 59.9968 13.8965C60.1604 13.8905 60.4514 13.8785 60.4514 13.8785C60.855 13.8665 61.2586 13.8365 61.6607 13.8365C62.0628 13.8365 62.4544 13.868 62.8535 13.88C62.9946 13.8845 63.1446 13.8905 63.3081 13.895C63.3817 13.862 63.4072 13.6849 63.3321 13.6189L63.0216 13.5889C62.9585 13.5829 62.849 13.5724 62.849 13.5724C62.1138 13.5229 62.1588 13.3158 62.1588 12.6032V10.7772C62.1588 10.6707 62.1453 10.3856 62.2249 10.3031C62.2909 10.2311 62.4079 10.2431 62.5129 10.2431C63.5092 10.2431 63.4957 10.3376 63.9683 11.1673L65.2526 13.4779C65.3576 13.6564 65.4357 13.8815 65.6982 13.8815H66.8145C66.9555 13.886 67.1026 13.8905 67.2661 13.8965C67.3396 13.8635 67.3636 13.6864 67.2901 13.6204L67.2946 13.6219ZM62.819 9.98651C62.5955 9.98651 62.1498 10.069 62.1498 9.77346V7.65193C62.1498 6.82222 62.1769 6.70369 63.1731 6.70369C64.3404 6.70369 65.0606 7.29634 65.0606 8.38711C65.0606 8.86123 64.8895 9.29934 64.4574 9.59641C63.9593 9.94 63.4222 9.98801 62.819 9.98801V9.98651Z" fill="#234075"/>
<path d="M63.0608 18.6077C63.0608 17.4464 63.0368 17.2694 62.2701 17.2139L61.9655 17.1914C61.892 17.1463 61.9175 16.9483 61.9895 16.9153C62.6707 16.9378 63.0848 16.9483 63.5709 16.9483C64.057 16.9483 64.4591 16.9378 65.0683 16.9153C65.1418 16.9483 65.1658 17.1478 65.0923 17.1914L64.7997 17.2139C64.0825 17.2694 64.057 17.4464 64.057 18.6077V22.4577C64.057 23.1538 64.093 23.4419 64.3121 23.652C64.4456 23.7735 64.6767 23.907 65.6384 23.907C66.6722 23.907 66.9288 23.862 67.1238 23.763C67.3669 23.6295 67.6834 23.2319 67.9265 22.6677C68 22.6122 68.2311 22.6572 68.2311 22.7337C68.2311 22.8553 67.8905 23.9836 67.7195 24.2821C67.0998 24.2596 65.943 24.2491 64.6887 24.2491H63.5694C63.0578 24.2491 62.6692 24.2596 61.988 24.2821C61.9145 24.2491 61.8905 24.0721 61.964 24.0061L62.3286 23.973C63.0338 23.907 63.0593 23.751 63.0593 22.5897V18.6077H63.0608Z" fill="#234075"/>
<path d="M95.6577 18.6286C95.6577 17.4568 95.6337 17.2678 94.9285 17.2123L94.6299 17.1898C94.5579 17.1448 94.5819 16.9467 94.6539 16.9137C95.2511 16.9362 95.6577 16.9467 96.1588 16.9467C96.6599 16.9467 97.0425 16.9362 97.6397 16.9137C97.7117 16.9467 97.7357 17.1463 97.6637 17.1898L97.3651 17.2123C96.6599 17.2678 96.6359 17.4553 96.6359 18.6286V22.5671C96.6359 23.7404 96.6599 23.8949 97.3651 23.9715L97.6637 24.0045C97.7357 24.0495 97.7117 24.2475 97.6397 24.2805C97.0425 24.258 96.6359 24.2475 96.1588 24.2475C95.6562 24.2475 95.2511 24.258 94.6539 24.2805C94.5819 24.2475 94.5579 24.0705 94.6299 24.0045L94.9285 23.9715C95.6337 23.8934 95.6577 23.7389 95.6577 22.5671V18.6286Z" fill="#234075"/>
<path d="M86.1109 23.97C86.0494 23.964 85.9354 23.955 85.9354 23.955C85.8093 23.943 85.6968 23.925 85.6068 23.826C85.4523 23.6609 85.4643 23.1913 85.4643 23.0038V18.156C85.4643 17.9445 85.4132 17.4869 85.5678 17.3218C85.6458 17.2348 85.8063 17.2213 85.9504 17.2123C86.0374 17.2048 86.0404 17.2048 86.1169 17.2018L86.4245 17.1793C86.498 17.1343 86.474 16.9362 86.4005 16.9032C86.2369 16.9092 86.0869 16.9062 85.9459 16.9107H84.6406C84.498 16.9107 84.369 16.9107 84.2925 17.0638L81.6323 22.6032L79.2827 17.2513C79.2047 17.0638 79.1927 16.9107 78.9466 16.9107H77.5888C77.4478 16.9062 77.2917 16.9077 77.1267 16.9017C77.0532 16.9347 77.0277 17.1343 77.1027 17.1778L77.4102 17.2003C77.4733 17.2048 77.5888 17.2138 77.5888 17.2138C78.0989 17.2468 78.1304 17.3608 78.0839 17.8965L77.6833 23.0953C77.6488 23.6174 77.6203 23.8935 77.0727 23.9445C77.0727 23.9445 76.9571 23.9595 76.8941 23.9655L76.588 23.9985C76.5145 24.0645 76.5385 24.2416 76.612 24.2746C76.7741 24.2686 77.0622 24.2596 77.0622 24.2596C77.3397 24.2461 77.6218 24.2221 77.9039 24.2221C78.2084 24.2221 78.513 24.2506 78.8191 24.2626C78.9601 24.2671 79.1102 24.2731 79.2737 24.2776C79.3472 24.2446 79.3727 24.0675 79.2977 24.0015L78.9916 23.9685C78.9106 23.9625 78.8206 23.9535 78.8206 23.9535C78.0314 23.8995 78.0494 23.3428 78.0989 22.6602L78.474 17.8245H78.564L81.1072 23.775C81.1327 23.8575 81.1717 23.9985 81.3007 23.9985C81.4177 23.9985 81.4553 23.8695 81.4943 23.787L84.36 17.6834H84.45V23.0008C84.45 23.2123 84.4755 23.6459 84.2565 23.811C84.1424 23.8965 83.7688 23.9475 83.7688 23.9475C83.7178 23.955 83.6638 23.9625 83.6023 23.97L83.2962 24.003C83.2227 24.069 83.2467 24.2461 83.3202 24.2791C83.4823 24.2731 83.7688 24.2641 83.7688 24.2641C84.1844 24.2521 84.6075 24.2221 85.0306 24.2221C85.3352 24.2221 85.9309 24.2506 85.9309 24.2506C86.0734 24.2551 86.2339 24.2701 86.399 24.2761C86.4725 24.2431 86.498 24.066 86.423 24L86.1154 23.967L86.1109 23.97Z" fill="#234075"/>
<path d="M106.063 24L106.021 23.967C105.959 23.961 105.905 23.9535 105.854 23.9445C105.376 23.838 105.19 23.2618 105.013 22.8507L102.551 17.0248C102.527 16.9542 102.477 16.8042 102.38 16.8042C102.246 16.8042 102.208 16.9662 102.172 17.0593L99.8199 22.8747C99.7344 23.0953 99.5153 23.6294 99.3563 23.7914C99.2347 23.916 99.0772 23.94 98.9077 23.9565C98.9077 23.9565 98.7756 23.9685 98.7111 23.976L98.4215 24.006C98.348 24.072 98.372 24.2491 98.4455 24.2821C98.6091 24.2761 98.9002 24.2656 98.9002 24.2656C99.2212 24.2611 99.5438 24.2206 99.8664 24.2206C100.138 24.2206 100.408 24.2491 100.678 24.2611C100.678 24.2611 100.969 24.2716 101.133 24.2776C101.206 24.2446 101.23 24.0675 101.157 24.0015L100.849 23.9685C100.788 23.9625 100.683 23.952 100.683 23.952C100.399 23.9205 100.046 23.8695 100.046 23.5589C100.046 23.3503 100.144 23.1058 100.217 22.9212L100.584 22.051C100.767 21.6339 100.693 21.5859 101.181 21.5859H102.839C103.424 21.5859 103.338 21.5859 103.595 22.1785L103.985 23.0608C104.046 23.2123 104.156 23.4674 104.156 23.6294C104.156 23.9205 103.838 23.94 103.539 23.9655C103.539 23.9655 103.44 23.9745 103.355 23.9805L103.059 24.0015C102.986 24.0675 103.01 24.2446 103.085 24.2776C103.248 24.2716 103.539 24.2596 103.539 24.2596C103.886 24.2476 104.235 24.2206 104.57 24.2206C104.998 24.2206 105.424 24.2491 105.851 24.2611C105.991 24.2656 105.872 24.2701 106.034 24.2761C106.108 24.2431 106.132 24.066 106.058 24H106.063ZM102.837 21.2618H101.401C101.352 21.2618 100.951 21.3083 100.951 21.1913C100.951 21.1553 100.977 21.0863 100.989 21.0503L101.851 18.9152C101.877 18.8567 101.964 18.5626 102.063 18.5626C102.138 18.5626 102.238 18.8672 102.262 18.9152L103.112 20.9092C103.112 20.9332 103.199 21.1208 103.199 21.1673C103.199 21.2963 102.912 21.2603 102.837 21.2603V21.2618Z" fill="#234075"/>
<path d="M33.8574 15.9025L34.6646 16.2371L36.4546 14.9888L33.8574 15.9025Z" fill="#E3A82B"/>
<path d="M3.78535 14.5086L1.66382 13.7629L1.77035 13.5034L4.15895 14.3001L4.16945 14.2941L4.48453 14.1155L4.61056 14.036L2.00591 12.9272L2.11543 12.6542L7.92939 15.0053L8.12144 14.9257L2.35399 12.1155L2.48303 11.8515L8.59405 14.6962L8.67807 14.6527L2.75309 11.2918L2.87462 11.0398L11.4313 15.6954C11.5018 15.5664 11.6473 15.3293 11.7238 15.2033C8.47102 12.144 5.33074 9.84846 5.33074 9.84846C5.33074 9.84846 8.55955 12.0105 12.543 14.021C12.6751 13.8575 12.7831 13.7254 12.9226 13.5694L5.62331 7.14329L5.81986 6.94224L11.7118 11.964L6.25347 6.49813L6.45752 6.28657L12.5851 12.2086L6.88063 5.87697L7.09818 5.68042L12.3705 11.3263L7.55879 5.26332L7.76585 5.07427L13.9339 12.5806C14.0929 12.4426 14.2265 12.3391 14.393 12.2116C12.5265 8.17404 10.489 4.88972 10.489 4.88972C10.489 4.88972 12.6586 8.08252 15.5843 11.4254C15.7628 11.3248 15.9444 11.2288 16.1289 11.1373L16.0974 11.1178L11.7748 2.49062L12.0314 2.37809L15.6128 9.24081L12.6001 2.12753L12.8686 2.0075L16.3315 9.79445L13.4133 1.78695L13.6893 1.68642L16.4635 8.89573L14.273 1.47037L14.5355 1.37284L17.4193 10.5821L17.4133 10.6062L17.4208 10.6032C17.6128 10.5386 17.8079 10.4816 18.0044 10.4291C17.7854 6.006 17.1312 2.22206 17.1312 2.22206C17.1312 2.22206 17.9414 5.97299 19.3938 10.1545C19.5963 10.129 19.8004 10.108 20.0044 10.0945L19.9984 10.0855H20.0239L20.0089 10.0645L19.2332 0.445611L19.5138 0.436609L20.264 8.14104L20.1349 0.417104L20.429 0.406602L20.7231 8.92423L21.0172 0.406602L21.3112 0.417104L21.1822 8.14104L21.9324 0.436609L22.213 0.445611L21.4373 10.0645L21.4223 10.0855H21.4268V10.0885H21.4373C21.6383 10.1005 21.8364 10.1215 22.0344 10.1455C23.4853 5.96849 24.294 2.22356 24.294 2.22356C24.294 2.22356 23.6413 5.9955 23.4208 10.4111C23.6188 10.4636 23.8154 10.5206 24.0074 10.5836L26.8806 1.40735L27.1447 1.50488L24.9541 8.92873L27.7283 1.71943L28.0044 1.81996L25.0862 9.82746L28.549 2.04051L28.8176 2.16054L25.8049 9.27382L29.3863 2.4111L29.6428 2.52363L25.3352 11.1208L25.3427 11.1238C25.5198 11.2108 25.6938 11.3023 25.8664 11.3984C28.7801 8.06602 30.9361 4.89122 30.9361 4.89122C30.9361 4.89122 28.9121 8.15304 27.0517 12.171C27.2182 12.2971 27.3803 12.4261 27.5378 12.5611L33.6338 5.13578L33.8424 5.32483L29.0292 11.3878L34.3015 5.74194L34.519 5.93849L28.8146 12.2701L34.9421 6.34809L35.1462 6.55964L29.6878 12.0255L35.5798 7.00375L35.7764 7.2048L28.5655 13.5589L28.57 13.5634C28.6961 13.7044 28.8176 13.8485 28.9361 13.9955C32.8956 11.994 36.0944 9.85146 36.0944 9.85146C36.0944 9.85146 32.9857 12.126 29.7493 15.1628C29.8379 15.3113 29.9819 15.5634 30.0629 15.7164L38.498 11.1238L38.6196 11.3773L31.8859 15.1958L38.8896 11.937L39.0187 12.2011L32.495 15.3803L32.6196 15.4239L39.2572 12.7397L39.3682 13.0128L33.1987 15.6369L33.3142 15.6849L37.4253 14.3151L38.0449 13.883L38.2505 14.0405L39.6038 13.5889L39.7103 13.8485L38.54 14.2611L40.231 15.5514L40.7726 15.853C38.6031 6.75769 30.426 0 20.6721 0C10.9181 0 2.45452 6.99625 0.45752 16.3271C0.483026 16.3151 0.508532 16.3031 0.534039 16.2911L0.781601 16.1785L0.933138 16.108L3.78535 14.5086Z" fill="#E3A82B"/>
<path d="M0.340585 24.4321C0.340585 24.4321 3.38935 23.8229 5.93548 23.8229C12.6422 23.8229 21.9205 27.5993 28.6527 27.5993C33.5904 27.5993 38.4081 26.2445 41.0323 24.27C41.2378 23.1012 41.3443 21.8994 41.3443 20.6721C41.3443 19.0097 41.1463 17.3938 40.7757 15.8454L37.97 14.2805L34.6767 16.5896L32.4621 15.7269C31.7119 16.1065 27.0863 19.2002 27.0863 19.2002L25.3098 17.9144L23.4044 17.5378L20.8642 15.6879L17.9505 17.6879C17.9505 17.6879 14.6992 19.5753 14.5881 19.5753C14.4771 19.5753 10.6662 16.5551 10.6662 16.5551L8.91073 14.7051C8.61215 14.8942 7.41786 15.4418 7.41786 15.4418L7.35634 15.4583L6.20105 15.1012L4.7982 14.357L0.535634 16.2895C0.510128 16.3015 0.484621 16.3135 0.459115 16.3255C0.15904 17.7269 0 19.1807 0 20.6706C0 21.9549 0.11853 23.2108 0.342086 24.4306L0.340585 24.4321Z" fill="#234075"/>
</svg>
