<svg width="422" height="422" viewBox="0 0 422 422" fill="none" xmlns="http://www.w3.org/2000/svg">
<path d="M0 211C0 37.2415 37.2415 0 211 0C384.759 0 422 37.2415 422 211C422 384.759 384.759 422 211 422C37.2415 422 0 384.759 0 211Z" fill="#F8F8F8"/>
<path d="M193.707 301.899C158.224 301.619 129.991 296.897 129.991 291.112C129.991 285.148 160.009 280.313 197.038 280.313C223.613 280.313 246.577 282.804 257.426 286.414C256.323 286.406 255.21 286.402 254.094 286.402C217.064 286.402 187.046 291.237 187.046 297.201C187.046 298.885 189.438 300.479 193.707 301.899Z" fill="#DBDBDB"/>
<path d="M254.095 308C227.521 308 204.557 305.51 193.708 301.899C194.811 301.908 195.923 301.912 197.04 301.912C234.07 301.912 264.088 297.077 264.088 291.113C264.088 289.429 261.696 287.835 257.428 286.414C292.91 286.694 321.143 291.417 321.143 297.201C321.143 303.166 291.125 308 254.095 308Z" fill="#DBDBDB"/>
<path d="M197.04 301.912C195.924 301.912 194.811 301.908 193.708 301.899C189.44 300.479 187.048 298.885 187.048 297.201C187.048 291.237 217.066 286.402 254.096 286.402C255.212 286.402 256.325 286.406 257.428 286.414C261.696 287.835 264.088 289.429 264.088 291.113C264.088 297.077 234.07 301.912 197.04 301.912Z" fill="#543E0C"/>
<path d="M192.467 243.401V291.113C192.467 291.809 193.031 292.374 193.728 292.374C194.425 292.374 194.989 291.809 194.989 291.113V243.401C194.989 242.705 194.425 242.14 193.728 242.14C193.031 242.14 192.467 242.705 192.467 243.401Z" fill="#5A231C"/>
<path d="M201.791 295.524C196.906 295.524 192.936 292.864 192.936 289.582C192.936 286.307 196.906 283.646 201.791 283.646C206.673 283.646 210.633 286.307 210.633 289.582C210.633 292.864 206.673 295.524 201.791 295.524Z" fill="#A0A4A3"/>
<path d="M201.79 295.524V294.263C199.577 294.267 197.59 293.651 196.233 292.737C195.554 292.281 195.035 291.758 194.699 291.222C194.361 290.684 194.197 290.146 194.196 289.582C194.197 289.02 194.361 288.484 194.698 287.946C195.201 287.144 196.124 286.368 197.362 285.81C198.597 285.249 200.13 284.907 201.79 284.907C204.002 284.904 205.986 285.52 207.339 286.433C208.017 286.887 208.534 287.41 208.87 287.945C209.207 288.482 209.37 289.02 209.371 289.582C209.37 290.146 209.206 290.686 208.87 291.224C208.368 292.027 207.447 292.803 206.212 293.362C204.98 293.922 203.449 294.265 201.79 294.263V295.524V296.786C204.461 296.783 206.898 296.068 208.745 294.831C209.668 294.21 210.445 293.454 211.005 292.567C211.563 291.683 211.895 290.659 211.894 289.582C211.895 288.507 211.563 287.483 211.004 286.6C210.163 285.272 208.842 284.235 207.255 283.512C205.665 282.792 203.793 282.386 201.79 282.385C199.119 282.388 196.679 283.103 194.828 284.339C193.905 284.958 193.126 285.714 192.565 286.599C192.006 287.482 191.673 288.506 191.674 289.582C191.673 290.659 192.006 291.684 192.565 292.568C193.408 293.898 194.732 294.935 196.321 295.658C197.913 296.38 199.787 296.785 201.79 296.786V295.524Z" fill="#5A231C"/>
<path d="M183.619 243.401V291.113C183.619 291.809 184.183 292.374 184.88 292.374C185.576 292.374 186.141 291.809 186.141 291.113V243.401C186.141 242.705 185.576 242.14 184.88 242.14C184.183 242.14 183.619 242.705 183.619 243.401Z" fill="#5A231C"/>
<path d="M176.811 295.524C181.702 295.524 185.659 292.864 185.659 289.582C185.659 286.307 181.702 283.646 176.811 283.646C171.923 283.646 167.966 286.307 167.966 289.582C167.966 292.864 171.923 295.524 176.811 295.524Z" fill="#A0A4A3"/>
<path d="M176.81 295.524V296.786C179.484 296.783 181.923 296.069 183.772 294.831C184.694 294.21 185.472 293.454 186.031 292.567C186.589 291.683 186.921 290.659 186.919 289.582C186.921 288.507 186.589 287.483 186.031 286.6C185.19 285.272 183.868 284.235 182.28 283.512C180.689 282.792 178.815 282.386 176.81 282.385C174.137 282.388 171.699 283.103 169.851 284.339C168.928 284.959 168.151 285.715 167.592 286.6C167.034 287.484 166.702 288.507 166.703 289.582C166.702 290.659 167.034 291.683 167.592 292.567C168.432 293.897 169.754 294.935 171.341 295.658C172.932 296.38 174.804 296.785 176.81 296.786V295.524V294.263C174.594 294.267 172.61 293.651 171.258 292.737C170.58 292.283 170.063 291.759 169.727 291.224C169.391 290.686 169.227 290.147 169.226 289.582C169.227 289.02 169.39 288.482 169.726 287.945C170.227 287.143 171.149 286.368 172.384 285.809C173.617 285.249 175.148 284.907 176.81 284.907C179.027 284.904 181.012 285.52 182.365 286.433C183.043 286.888 183.561 287.41 183.896 287.945C184.233 288.482 184.396 289.02 184.397 289.582C184.396 290.147 184.233 290.686 183.896 291.224C183.394 292.027 182.474 292.803 181.238 293.362C180.005 293.922 178.472 294.265 176.81 294.263V295.524Z" fill="#5A231C"/>
<path d="M121.957 177.395C122.557 187.375 125.953 196.279 131.071 202.744C133.632 205.976 136.626 208.598 139.929 210.42C143.231 212.241 146.847 213.256 150.598 213.255C151.013 213.255 151.43 213.243 151.849 213.217C152.544 213.176 153.074 212.579 153.032 211.884C152.991 211.188 152.394 210.659 151.699 210.7C151.329 210.722 150.963 210.733 150.598 210.733C147.303 210.732 144.118 209.848 141.147 208.211C136.693 205.758 132.729 201.594 129.781 196.242C126.832 190.893 124.901 184.368 124.475 177.244C124.433 176.549 123.835 176.019 123.141 176.061C122.445 176.102 121.916 176.7 121.957 177.395" fill="#5A231C"/>
<path d="M116.294 170.441C116.002 165.561 118.42 161.446 121.697 161.25C124.973 161.053 127.856 164.851 128.148 169.731C128.441 174.604 126.031 178.719 122.755 178.915C119.479 179.112 116.588 175.314 116.294 170.441Z" fill="#A0A4A3"/>
<path d="M116.294 170.44L117.553 170.364C117.538 170.121 117.531 169.881 117.531 169.643C117.529 167.598 118.067 165.766 118.883 164.501C119.29 163.867 119.76 163.377 120.249 163.048C120.74 162.717 121.239 162.542 121.772 162.508L121.94 162.503C122.484 162.504 123.02 162.659 123.561 162.981C124.369 163.462 125.167 164.342 125.773 165.528C126.379 166.711 126.793 168.188 126.889 169.806V169.806C126.904 170.049 126.91 170.291 126.91 170.531C126.913 172.572 126.376 174.403 125.562 175.666C125.156 176.299 124.687 176.788 124.2 177.117C123.71 177.447 123.211 177.623 122.679 177.657L122.512 177.662C121.967 177.66 121.43 177.506 120.887 177.183C120.077 176.702 119.278 175.822 118.671 174.637C118.064 173.455 117.649 171.98 117.553 170.365V170.364L116.294 170.44L115.035 170.516C115.194 173.115 116.015 175.453 117.303 177.21C117.948 178.088 118.715 178.822 119.593 179.348C120.47 179.874 121.468 180.184 122.512 180.184C122.617 180.184 122.723 180.181 122.83 180.174C123.845 180.114 124.798 179.761 125.613 179.206C126.841 178.372 127.783 177.112 128.431 175.62C129.077 174.126 129.432 172.386 129.433 170.531C129.433 170.242 129.424 169.95 129.407 169.655V169.655C129.248 167.054 128.429 164.714 127.144 162.956C126.5 162.078 125.734 161.343 124.856 160.817C123.981 160.291 122.982 159.98 121.94 159.981C121.834 159.981 121.728 159.984 121.621 159.99C120.606 160.05 119.653 160.404 118.836 160.958C117.607 161.793 116.663 163.054 116.013 164.547C115.365 166.042 115.01 167.785 115.009 169.643C115.009 169.932 115.018 170.224 115.035 170.517V170.516L116.294 170.44Z" fill="#5A231C"/>
<path d="M255.002 169.423C255.061 170.415 255.09 171.397 255.09 172.371C255.092 181.471 252.533 189.72 248.354 195.731C246.266 198.738 243.778 201.186 241.013 202.923C238.247 204.662 235.209 205.696 231.97 205.891C231.275 205.932 230.745 206.53 230.786 207.226C230.829 207.921 231.426 208.45 232.121 208.409C235.804 208.189 239.266 207.002 242.355 205.059C246.992 202.142 250.798 197.542 253.452 191.898C256.106 186.252 257.611 179.549 257.613 172.371C257.612 171.347 257.582 170.314 257.519 169.273C257.478 168.578 256.881 168.048 256.185 168.09C255.49 168.131 254.961 168.729 255.002 169.423" fill="#5A231C"/>
<path d="M262.314 161.692C262.022 156.813 259.125 153.016 255.859 153.212C252.588 153.407 250.17 157.523 250.462 162.402C250.754 167.276 253.647 171.073 256.917 170.877C260.183 170.681 262.606 166.565 262.314 161.692Z" fill="#A0A4A3"/>
<path d="M262.313 161.692L263.571 161.617C263.413 159.014 262.59 156.675 261.303 154.917C260.658 154.04 259.891 153.305 259.014 152.779C258.138 152.254 257.141 151.943 256.1 151.943C255.994 151.943 255.887 151.946 255.781 151.953C254.768 152.012 253.816 152.366 252.999 152.921C251.771 153.756 250.829 155.017 250.18 156.509C249.532 158.005 249.176 159.748 249.176 161.607C249.176 161.893 249.184 162.185 249.203 162.482L249.202 162.478C249.361 165.077 250.182 167.415 251.469 169.173C252.114 170.05 252.88 170.784 253.759 171.31C254.634 171.835 255.631 172.147 256.674 172.146C256.779 172.146 256.885 172.142 256.99 172.136C258.005 172.077 258.956 171.722 259.772 171.168C260.999 170.333 261.942 169.073 262.592 167.58C263.24 166.085 263.597 164.344 263.597 162.486C263.597 162.199 263.588 161.909 263.571 161.619V161.617L262.313 161.692L261.054 161.767C261.068 162.01 261.075 162.25 261.075 162.486C261.077 164.529 260.538 166.36 259.722 167.626C259.316 168.26 258.845 168.75 258.357 169.08C257.867 169.41 257.37 169.586 256.84 169.618L256.674 169.623C256.131 169.623 255.595 169.468 255.053 169.145C254.244 168.665 253.444 167.784 252.838 166.599C252.23 165.416 251.816 163.942 251.72 162.327L251.719 162.323C251.704 162.085 251.698 161.846 251.698 161.607C251.695 159.561 252.234 157.728 253.049 156.463C253.456 155.829 253.926 155.339 254.414 155.01C254.904 154.679 255.402 154.503 255.933 154.471L256.1 154.466C256.642 154.467 257.177 154.621 257.719 154.944C258.528 155.425 259.328 156.306 259.934 157.492C260.543 158.675 260.958 160.151 261.054 161.768V161.767L262.313 161.692Z" fill="#5A231C"/>
<path d="M150.333 249.979C144.115 249.979 139.058 244.921 139.058 238.705V133.283C139.058 127.069 144.115 122.015 150.333 122.015H228.268C234.488 122.015 239.548 127.069 239.548 133.283V238.705C239.548 244.921 234.488 249.979 228.268 249.979H150.333Z" fill="#E9E9E9"/>
<path d="M228.268 120.754H150.333C143.42 120.754 137.797 126.374 137.797 133.283V238.705C137.797 245.617 143.42 251.24 150.333 251.24H228.268C235.183 251.24 240.81 245.617 240.81 238.705V133.283C240.81 126.374 235.183 120.754 228.268 120.754ZM228.268 123.276C233.797 123.276 238.287 127.757 238.287 133.283V238.705C238.287 244.24 233.797 248.718 228.268 248.718H150.333C144.801 248.718 140.319 244.24 140.319 238.705V133.283C140.319 127.757 144.801 123.276 150.333 123.276H228.268Z" fill="#5A231C"/>
<path d="M228.269 123.276H207.489C220.349 134.132 228.622 150.308 228.622 168.138C228.622 200.195 201.865 226.943 169.808 226.943C159.13 226.943 149.031 223.968 140.32 218.817V238.705C140.32 244.24 144.802 248.718 150.334 248.718H228.269C233.798 248.718 238.289 244.24 238.289 238.705V133.283C238.289 127.757 233.798 123.276 228.269 123.276Z" fill="#C1C0C1"/>
<path d="M174.046 203.152C174.046 207.611 170.426 211.234 165.961 211.234C161.498 211.234 157.875 207.611 157.875 203.152C157.875 198.687 161.498 195.064 165.961 195.064C170.426 195.064 174.046 198.687 174.046 203.152Z" fill="#5A231C"/>
<path d="M167.286 200.756C167.286 202.862 165.578 204.569 163.47 204.569C161.369 204.569 159.661 202.862 159.661 200.756C159.661 198.649 161.369 196.945 163.47 196.945C165.578 196.945 167.286 198.649 167.286 200.756Z" fill="white"/>
<path d="M169.007 204.932C169.007 205.654 168.427 206.248 167.69 206.248C166.962 206.248 166.371 205.654 166.371 204.932C166.371 204.197 166.962 203.606 167.69 203.606C168.427 203.606 169.007 204.197 169.007 204.932Z" fill="white"/>
<path d="M220.723 203.152C220.723 207.611 217.103 211.234 212.641 211.234C208.175 211.234 204.56 207.611 204.56 203.152C204.56 198.687 208.175 195.064 212.641 195.064C217.103 195.064 220.723 198.687 220.723 203.152Z" fill="#5A231C"/>
<path d="M213.963 200.756C213.963 202.862 212.25 204.569 210.147 204.569C208.049 204.569 206.335 202.862 206.335 200.756C206.335 198.649 208.049 196.945 210.147 196.945C212.25 196.945 213.963 198.649 213.963 200.756Z" fill="white"/>
<path d="M215.692 204.932C215.692 205.654 215.099 206.248 214.376 206.248C213.631 206.248 213.051 205.654 213.051 204.932C213.051 204.197 213.631 203.606 214.376 203.606C215.099 203.606 215.692 204.197 215.692 204.932Z" fill="white"/>
<path d="M208.414 229.591C208.351 229.519 206.516 227.388 203.002 225.255C199.491 223.123 194.28 220.992 187.55 220.993C181.576 220.994 176.711 223.141 173.355 225.267C169.995 227.397 168.117 229.515 168.062 229.576C167.6 230.098 167.649 230.895 168.171 231.356C168.693 231.818 169.49 231.769 169.952 231.247H169.951C170.006 231.184 171.777 229.224 174.85 227.306C177.926 225.385 182.278 223.514 187.55 223.515C193.74 223.516 198.482 225.464 201.694 227.411C203.298 228.384 204.515 229.356 205.322 230.078C205.727 230.438 206.029 230.736 206.225 230.938C206.323 231.04 206.396 231.118 206.441 231.168L206.49 231.222L206.499 231.233L206.628 231.121L206.498 231.232L206.499 231.233L206.628 231.121L206.498 231.232C206.951 231.761 207.747 231.822 208.276 231.37C208.805 230.916 208.867 230.12 208.414 229.591Z" fill="#5A231C"/>
<path d="M255.239 123.301V140.633H257.549V123.301H258.167L258.629 117.679H253.93L254.621 123.301H255.239Z" fill="#A0A4A3"/>
<path d="M255.238 123.301H254.908V140.633C254.908 140.72 254.943 140.805 255.005 140.866C255.066 140.928 255.151 140.964 255.238 140.964H257.548C257.637 140.964 257.719 140.929 257.782 140.866C257.844 140.804 257.878 140.721 257.878 140.633V123.632H258.166C258.338 123.632 258.481 123.5 258.495 123.328L258.957 117.706C258.965 117.615 258.933 117.523 258.871 117.456C258.809 117.388 258.72 117.349 258.628 117.349H253.929C253.834 117.349 253.744 117.39 253.682 117.46C253.619 117.531 253.59 117.626 253.601 117.719L254.293 123.341C254.313 123.507 254.454 123.632 254.62 123.632H255.238V123.301V122.971H254.912L254.302 118.009H258.27L257.862 122.971H257.548C257.461 122.971 257.377 123.007 257.315 123.068C257.253 123.13 257.219 123.215 257.219 123.301V140.303H255.568V123.301C255.568 123.213 255.534 123.131 255.471 123.068C255.409 123.006 255.326 122.971 255.238 122.971V123.301Z" fill="#5A231C"/>
<path d="M255.239 163.696C253.136 163.696 251.426 161.985 251.426 159.882V143.856C251.426 141.754 253.136 140.042 255.239 140.042H257.547C259.65 140.042 261.362 141.754 261.362 143.856V159.882C261.362 161.985 259.65 163.696 257.547 163.696H255.239Z" fill="#F9E71E"/>
<path d="M257.546 139.713H255.239C252.955 139.713 251.096 141.572 251.096 143.857V159.882C251.096 162.167 252.955 164.025 255.239 164.025H257.546C259.832 164.025 261.692 162.167 261.692 159.882V143.857C261.692 141.572 259.832 139.713 257.546 139.713ZM257.546 140.373C259.473 140.373 261.031 141.933 261.031 143.857V159.882C261.031 161.806 259.473 163.366 257.546 163.366H255.239C253.316 163.366 251.756 161.806 251.756 159.882V143.857C251.756 141.933 253.316 140.373 255.239 140.373H257.546Z" fill="#5A231C"/>
<path d="M255.239 163.366H257.546C258.055 163.366 258.536 163.255 258.972 163.059C255.503 161.796 252.972 158.437 252.972 154.575C252.972 149.983 256.552 146.101 261.031 145.608V143.857C261.031 141.933 259.473 140.373 257.546 140.373H255.239C253.316 140.373 251.756 141.933 251.756 143.857V159.882C251.756 161.806 253.316 163.366 255.239 163.366Z" fill="#C59F21"/>
<path d="M259.021 161.219V142.731C259.021 142.549 258.873 142.401 258.692 142.401C258.509 142.401 258.361 142.549 258.361 142.731V161.219C258.361 161.402 258.509 161.549 258.692 161.549C258.873 161.549 259.021 161.402 259.021 161.219Z" fill="#5A231C"/>
<path d="M256.725 161.508V142.233C256.725 142.051 256.577 141.903 256.395 141.903C256.213 141.903 256.065 142.051 256.065 142.233V161.508C256.065 161.69 256.213 161.838 256.395 161.838C256.577 161.838 256.725 161.69 256.725 161.508Z" fill="#5A231C"/>
<path d="M254.425 161.219V142.731C254.425 142.549 254.278 142.401 254.095 142.401C253.913 142.401 253.766 142.549 253.766 142.731V161.219C253.766 161.402 253.913 161.549 254.095 161.549C254.278 161.549 254.425 161.402 254.425 161.219Z" fill="#5A231C"/>
<path d="M114.092 175.139L113.971 175.127C113.807 175.095 113.662 174.999 113.569 174.861L109.815 169.284C109.62 168.995 109.697 168.604 109.985 168.409L129.835 155.043C129.939 154.973 130.062 154.936 130.187 154.936L130.308 154.948C130.472 154.979 130.617 155.076 130.71 155.214L134.464 160.791C134.658 161.08 134.582 161.472 134.293 161.666L114.444 175.032C114.34 175.102 114.216 175.139 114.092 175.139Z" fill="#A0A4A3"/>
<path d="M130.186 154.305C129.938 154.305 129.691 154.379 129.482 154.52L109.632 167.886C109.055 168.275 108.901 169.058 109.29 169.637L113.045 175.213C113.231 175.49 113.521 175.682 113.85 175.746C113.93 175.762 114.01 175.769 114.091 175.769C114.34 175.769 114.586 175.696 114.796 175.554L134.645 162.189C135.223 161.8 135.376 161.017 134.987 160.439L131.232 154.862C131.046 154.585 130.757 154.393 130.427 154.329C130.348 154.313 130.267 154.305 130.186 154.305ZM130.186 155.566L133.941 161.143L114.091 174.508L110.337 168.932L130.186 155.566Z" fill="#5A231C"/>
<path d="M132.332 158.751C129.716 158.274 126.924 158.755 124.586 160.329C121.2 162.609 119.574 166.635 120.078 170.476L114.091 174.508L110.337 168.932L130.187 155.566L132.332 158.751Z" fill="#5C6065"/>
<path d="M135.227 163.82C132.693 163.82 130.337 162.567 128.925 160.468C127.792 158.786 127.382 156.764 127.771 154.774C128.159 152.784 129.301 151.064 130.983 149.93C132.24 149.085 133.701 148.638 135.212 148.638C136.506 148.638 137.787 148.97 138.917 149.597C139.109 149.703 139.231 149.902 139.241 150.121C139.25 150.34 139.145 150.548 138.963 150.671L133.616 154.272C133.425 154.4 133.297 154.594 133.253 154.819C133.21 155.044 133.256 155.273 133.384 155.462L135.239 158.219C135.4 158.457 135.666 158.599 135.953 158.599C136.123 158.599 136.287 158.548 136.431 158.452L141.776 154.852C141.882 154.781 142.005 154.745 142.128 154.745C142.217 154.745 142.306 154.764 142.39 154.802C142.59 154.892 142.727 155.08 142.754 155.298C143.106 158.152 141.844 160.921 139.463 162.525C138.204 163.372 136.738 163.82 135.227 163.82Z" fill="#A0A4A3"/>
<path d="M135.211 148.007C133.576 148.007 131.991 148.492 130.63 149.407C128.807 150.635 127.572 152.498 127.152 154.653C126.731 156.809 127.174 158.999 128.403 160.821C129.931 163.093 132.482 164.451 135.226 164.451C136.864 164.451 138.451 163.965 139.814 163.047C142.394 161.31 143.76 158.311 143.38 155.221C143.327 154.786 143.05 154.409 142.651 154.228C142.484 154.151 142.306 154.114 142.128 154.114C141.881 154.114 141.635 154.187 141.424 154.329L136.078 157.929L135.952 157.968C135.916 157.968 135.824 157.958 135.762 157.867L133.907 155.11C133.863 155.045 133.863 154.982 133.871 154.94C133.88 154.897 133.903 154.839 133.968 154.795L139.315 151.194C139.679 150.95 139.889 150.533 139.871 150.095C139.852 149.656 139.607 149.259 139.223 149.046C138 148.366 136.612 148.007 135.211 148.007ZM135.211 149.268C136.395 149.268 137.569 149.569 138.611 150.148L133.264 153.749C132.581 154.208 132.401 155.134 132.861 155.815L134.716 158.571C135.004 158.999 135.474 159.229 135.952 159.229C136.238 159.229 136.527 159.147 136.783 158.975L142.128 155.375C142.438 157.893 141.357 160.489 139.11 162.001C137.917 162.805 136.564 163.19 135.226 163.19C132.989 163.19 130.791 162.113 129.448 160.117C127.3 156.927 128.144 152.602 131.335 150.454C132.526 149.652 133.875 149.268 135.211 149.268Z" fill="#5A231C"/>
<path d="M135.092 149.273C131.294 152.684 130.449 158.588 133.349 162.931C131.811 162.503 130.41 161.545 129.448 160.117C127.3 156.927 128.144 152.602 131.335 150.454C132.49 149.676 133.796 149.296 135.092 149.273Z" fill="#5C6065"/>
<path d="M109.23 181.327C107.936 181.327 106.656 180.994 105.526 180.366C105.334 180.26 105.212 180.061 105.203 179.842C105.193 179.623 105.299 179.415 105.48 179.292L110.827 175.692C111.017 175.564 111.145 175.37 111.189 175.145C111.234 174.919 111.187 174.691 111.058 174.501L109.204 171.745C109.044 171.508 108.777 171.366 108.49 171.366C108.319 171.366 108.154 171.416 108.012 171.511L102.666 175.111C102.56 175.182 102.437 175.218 102.314 175.218C102.225 175.218 102.135 175.2 102.052 175.162C101.852 175.071 101.714 174.883 101.688 174.665C101.337 171.811 102.599 169.042 104.982 167.439C106.239 166.591 107.703 166.143 109.214 166.143C111.748 166.143 114.104 167.397 115.517 169.497C117.854 172.968 116.932 177.694 113.461 180.033C112.203 180.879 110.74 181.327 109.23 181.327Z" fill="#A0A4A3"/>
<path d="M109.215 165.513C107.577 165.513 105.992 165.998 104.63 166.915C102.05 168.652 100.683 171.651 101.063 174.742C101.116 175.177 101.392 175.553 101.791 175.735C101.957 175.812 102.136 175.849 102.314 175.849C102.561 175.849 102.806 175.776 103.018 175.634L108.365 172.035L108.49 171.996C108.527 171.996 108.62 172.006 108.681 172.096L110.535 174.853C110.58 174.918 110.579 174.982 110.571 175.024C110.563 175.066 110.539 175.126 110.475 175.169L105.129 178.769C104.765 179.014 104.554 179.43 104.573 179.869C104.592 180.307 104.837 180.704 105.22 180.917C106.443 181.598 107.83 181.957 109.23 181.957C110.866 181.957 112.451 181.472 113.813 180.555C117.573 178.023 118.572 172.904 116.041 169.145C114.51 166.87 111.958 165.513 109.215 165.513ZM109.214 166.774C111.453 166.773 113.65 167.852 114.994 169.849C117.142 173.038 116.298 177.361 113.109 179.509C111.916 180.312 110.567 180.696 109.23 180.696C108.047 180.696 106.874 180.395 105.833 179.815L111.18 176.215C111.861 175.756 112.042 174.831 111.582 174.148L109.727 171.393C109.44 170.966 108.969 170.735 108.49 170.735C108.204 170.735 107.915 170.817 107.661 170.989L102.314 174.588C102.005 172.071 103.085 169.475 105.334 167.961C106.526 167.159 107.878 166.774 109.214 166.774Z" fill="#5A231C"/>
<path d="M109.549 180.686C108.258 180.745 106.969 180.447 105.833 179.815L108.382 178.099C108.642 178.998 109.033 179.868 109.549 180.686Z" fill="#5C6065"/>
<path d="M111.533 167.169C110.376 168.184 109.482 169.427 108.881 170.787C108.48 170.678 108.034 170.738 107.661 170.989L102.315 174.588C102.005 172.071 103.086 169.475 105.335 167.961C107.23 166.685 109.532 166.466 111.533 167.169Z" fill="#5C6065"/>
<path d="M127.486 161.909L117.617 168.553C117.328 168.747 117.252 169.139 117.447 169.428C117.641 169.717 118.033 169.793 118.322 169.599L128.191 162.955C128.48 162.76 128.556 162.368 128.361 162.079C128.167 161.791 127.775 161.714 127.486 161.909Z" fill="#5A231C"/>
<path d="M126.348 160.217L116.48 166.862C116.191 167.056 116.114 167.448 116.309 167.737C116.503 168.026 116.895 168.102 117.184 167.908L127.052 161.263C127.341 161.068 127.418 160.677 127.223 160.388C127.029 160.098 126.637 160.022 126.348 160.217Z" fill="#5A231C"/>
<path d="M213.49 291.015C213.04 291.015 212.623 290.774 212.398 290.384C212.173 289.994 212.173 289.513 212.398 289.123L255.301 214.807C255.526 214.417 255.942 214.177 256.393 214.177C256.843 214.177 257.26 214.417 257.485 214.807L278.941 251.966L300.391 289.123C300.616 289.513 300.616 289.994 300.391 290.384C300.166 290.774 299.749 291.015 299.299 291.015H213.49Z" fill="#FCBA19"/>
<path d="M256.393 212.916C255.492 212.916 254.659 213.396 254.209 214.177L232.758 251.335L211.306 288.493C210.856 289.273 210.856 290.234 211.307 291.015C211.757 291.795 212.59 292.276 213.491 292.276H256.393H299.299C300.201 292.276 301.033 291.795 301.484 291.015C301.934 290.234 301.934 289.273 301.484 288.493L280.034 251.335L258.578 214.177C258.127 213.396 257.295 212.916 256.393 212.916ZM256.393 215.438L277.849 252.597L299.299 289.754H213.491L234.942 252.597L256.393 215.438Z" fill="#5A231C"/>
<path d="M277.85 252.597L273.17 244.49C272.105 262.218 257.019 276.67 239.06 276.67C233.408 276.67 228.054 275.237 223.319 272.729L213.492 289.754H299.3L277.85 252.597Z" fill="#E3A82B"/>
<path d="M198.281 301.682C197.584 301.682 197.02 301.118 197.02 300.421V283.656C197.02 282.959 197.584 282.395 198.281 282.395H314.51C315.207 282.395 315.772 282.959 315.772 283.656V300.421C315.772 301.118 315.207 301.682 314.51 301.682H198.281Z" fill="#FCBA19"/>
<path d="M314.51 281.134H198.28C196.887 281.134 195.758 282.263 195.758 283.656V300.421C195.758 301.814 196.887 302.944 198.28 302.944H314.51C315.903 302.944 317.032 301.814 317.032 300.421V283.656C317.032 282.263 315.903 281.134 314.51 281.134ZM314.51 283.656V300.421H198.28V283.656H314.51Z" fill="#5A231C"/>
<path d="M213.713 290.632C213.262 290.632 212.846 290.391 212.621 290.001C212.396 289.611 212.396 289.13 212.621 288.74L223.291 270.258C223.516 269.867 223.933 269.627 224.383 269.627H288.409C288.86 269.627 289.276 269.867 289.502 270.258L300.172 288.74C300.397 289.13 300.397 289.611 300.172 290.001C299.946 290.391 299.53 290.632 299.079 290.632H213.713Z" fill="white"/>
<path d="M288.409 268.366H224.383C223.482 268.366 222.649 268.847 222.199 269.627L211.529 288.11C211.078 288.89 211.078 289.851 211.529 290.632C211.979 291.412 212.812 291.893 213.713 291.893H299.079C299.981 291.893 300.813 291.412 301.263 290.632C301.714 289.851 301.714 288.89 301.264 288.11L290.594 269.627C290.143 268.847 289.31 268.366 288.409 268.366ZM288.409 270.888L299.079 289.371H213.713L224.383 270.888H288.409Z" fill="#5A231C"/>
<path d="M214.831 287.428L213.713 289.371H299.079L297.137 286.003L288.409 270.888H257.868C252.445 274.525 245.968 276.67 239.06 276.67C233.412 276.67 228.054 275.237 223.324 272.729L214.831 287.428Z" fill="#BDBCBC"/>
<path d="M235.056 253.663C234.605 253.663 234.189 253.423 233.964 253.033C233.739 252.643 233.739 252.162 233.964 251.772L244.63 233.292C244.855 232.902 245.271 232.662 245.722 232.662H267.07C267.521 232.662 267.937 232.902 268.162 233.292L278.833 251.772C279.057 252.161 279.057 252.643 278.833 253.033C278.608 253.423 278.191 253.663 277.741 253.663H235.056Z" fill="white"/>
<path d="M267.071 231.4H245.723C244.821 231.4 243.989 231.881 243.538 232.662L232.872 251.141C232.422 251.922 232.422 252.883 232.872 253.663C233.323 254.444 234.155 254.924 235.057 254.924H277.741C278.642 254.924 279.475 254.444 279.926 253.663C280.376 252.883 280.376 251.921 279.925 251.141L269.255 232.662C268.805 231.881 267.972 231.4 267.071 231.4ZM267.071 233.923L277.741 252.402H235.057L245.723 233.923H267.071Z" fill="#5A231C"/>
<path d="M277.74 252.402L275.233 248.065L273.169 244.489C273.006 247.219 272.506 249.869 271.718 252.402H277.74Z" fill="#BDBCBC"/>
</svg>
