<?xml version="1.0" encoding="utf-8"?>
<!-- Generator: Adobe Illustrator 28.1.0, SVG Export Plug-In . SVG Version: 6.00 Build 0)  -->
<svg version="1.1" xmlns="http://www.w3.org/2000/svg" xmlns:xlink="http://www.w3.org/1999/xlink" x="0px" y="0px"
	 viewBox="0 0 539.5 417.2" style="enable-background:new 0 0 539.5 417.2;" xml:space="preserve">
<style type="text/css">
	.st0{fill:#EBEFF2;}
	.st1{fill:#3A3578;}
	.st2{fill:#EC755F;}
	.st3{fill:#FFC080;}
	.st4{opacity:0.32;fill:#E25A47;}
	.st5{fill:#C4D9E8;}
	.st6{opacity:0.24;fill:#28275B;}
	.st7{opacity:0.16;fill:#A8C1D7;}
	.st8{fill:#3D241D;}
	.st9{fill:#4F322B;}
	.st10{fill:#FFFFFF;}
	.st11{fill:#F7E5D7;}
	.st12{fill:none;stroke:#020202;stroke-miterlimit:10;}
	.st13{fill:#A8C1D7;}
	.st14{fill:#020202;}
	.st15{opacity:0.35;fill:#FD5457;}
	.st16{fill:#C48F6B;}
	.st17{fill:#3397D1;}
	.st18{fill:#F6A87C;}
	.st19{fill:#3D2545;}
	.st20{fill:none;stroke:#3262B7;stroke-miterlimit:10;}
	.st21{opacity:0.17;fill:#3C2D3F;}
	.st22{fill:#EA8363;}
	.st23{fill:#FD5457;}
	.st24{fill:#47394A;}
	.st25{fill:#372C3A;}
	.st26{fill:#D35057;}
	.st27{fill:#333333;}
	.st28{fill:none;stroke:#EA8363;stroke-miterlimit:10;}
	.st29{fill:#3C2D3F;}
	.st30{fill:#F75756;}
	.st31{fill:#EF7D7D;}
	.st32{fill:#E25A47;}
</style>
<g id="BACKGROUND">
</g>
<g id="OBJECTS">
	<g>
		<path class="st0" d="M525.3,412.7H13.2c-4.6,0-8.3-3.7-8.3-8.3l0,0c0-4.6,3.7-8.3,8.3-8.3h512.1c4.6,0,8.3,3.7,8.3,8.3l0,0
			C533.7,409,529.9,412.7,525.3,412.7z"/>
		<g>
			<path class="st1" d="M177.1,30.3v97.4h-42v-6.5c3.4-2.2,5.7-6,5.7-10.4c0-6.9-5.6-12.4-12.4-12.4c-6.8,0-12.4,5.5-12.4,12.4
				c0,4.4,2.2,8.2,5.6,10.4v6.5h-42V30.3H177.1z"/>
			
				<ellipse transform="matrix(0.3312 -0.9435 0.9435 0.3312 74.1794 129.4689)" class="st1" cx="128.4" cy="12.4" rx="12.4" ry="12.4"/>
			<rect x="121.7" y="17.9" class="st1" width="13.5" height="19.5"/>
			<g>
				<g>
					<path class="st1" d="M195.2,90.6c-6.9,0-12.4-5.6-12.4-12.4c0-6.9,5.6-12.4,12.4-12.4c6.9,0,12.4,5.6,12.4,12.4
						C207.6,85.1,202,90.6,195.2,90.6z"/>
					<rect x="170.2" y="71.5" class="st1" width="19.5" height="13.5"/>
					<path class="st1" d="M60.8,65.8c6.9,0,12.4,5.6,12.4,12.4c0,6.9-5.6,12.4-12.4,12.4c-6.9,0-12.4-5.6-12.4-12.4
						C48.4,71.4,53.9,65.8,60.8,65.8z"/>
					<rect x="66.3" y="71.5" class="st1" width="19.5" height="13.5"/>
				</g>
			</g>
		</g>
		<g>
			<g>
				<path class="st2" d="M361.7,361.3l-19.3,28.5c-1.7,2.5-0.3,5.9,2.6,6.6l0,0c1.4,0.3,2.9-0.1,3.9-1.2l24-24L361.7,361.3z"/>
				<polygon class="st2" points="360.9,232.6 375.6,249.5 371.3,254.2 353.1,238.6 				"/>
				<path class="st2" d="M351,221.6c0,3.2-2.6,5.9-5.9,5.9c-3.2,0-5.9-2.6-5.9-5.9c0-3.2,2.6-5.9,5.9-5.9
					C348.4,215.7,351,218.3,351,221.6z"/>
				<path class="st3" d="M376.5,228.4c-7,4.9-17,13.1-26.1,24.7c-3.8,4.9-11.4,3.5-13.2-2.4c-2.6-8.8-1.7-18.6,2.9-26c0,0,0,0,0,0
					c1-1.6,2.2-3.1,3.6-4.4c8.3-8.1,18.4-10,28.7-6c1,0.4,2.1,0.9,3.1,1.4C380.6,218.1,381.2,225.2,376.5,228.4z"/>
				<path class="st4" d="M376.5,228.4c-7,4.9-17,13.1-26.1,24.7c-3.8,4.9-11.4,3.5-13.2-2.4c-2.6-8.8-1.7-18.6,2.9-26
					c-5,9-2.9,26,8.8,21.5c11.2-4.3,27.8-18.3,23.4-32c1,0.4,2.1,0.9,3.1,1.4C380.6,218.1,381.2,225.2,376.5,228.4z"/>
			</g>
			<g>
				<path class="st2" d="M496.3,361.3l19.3,28.5c1.7,2.5,0.3,5.9-2.6,6.6l0,0c-1.4,0.3-2.9-0.1-3.9-1.2l-24-24L496.3,361.3z"/>
				<polygon class="st2" points="497.1,232.6 482.4,249.5 486.7,254.2 504.8,238.6 				"/>
				<path class="st2" d="M506.9,221.6c0,3.2,2.6,5.9,5.9,5.9c3.2,0,5.9-2.6,5.9-5.9c0-3.2-2.6-5.9-5.9-5.9
					C509.5,215.7,506.9,218.3,506.9,221.6z"/>
				<path class="st3" d="M481.4,228.4c7,4.9,17,13.1,26.1,24.7c3.8,4.9,11.4,3.5,13.2-2.4c2.6-8.8,1.7-18.6-2.9-26c0,0,0,0,0,0
					c-1-1.6-2.2-3.1-3.6-4.4c-8.3-8.1-18.4-10-28.7-6c-1,0.4-2.1,0.9-3.1,1.4C477.3,218.1,476.8,225.2,481.4,228.4z"/>
				<path class="st4" d="M481.4,228.4c7,4.9,17,13.1,26.1,24.7c3.8,4.9,11.4,3.5,13.2-2.4c2.6-8.8,1.7-18.6-2.9-26
					c5,9,2.9,26-8.8,21.5c-11.2-4.3-27.8-18.3-23.4-32c-1,0.4-2.1,0.9-3.1,1.4C477.3,218.1,476.8,225.2,481.4,228.4z"/>
			</g>
			<g>
				<circle class="st1" cx="427.9" cy="308.3" r="90.3"/>
				<path class="st5" d="M510.6,308.3c0,45.7-37,82.7-82.7,82.7c-45.7,0-82.7-37-82.7-82.7c0-45.7,37-82.7,82.7-82.7
					C473.5,225.6,510.6,262.6,510.6,308.3z"/>
				<path class="st6" d="M427.9,225.6c-45.7,0-82.7,37-82.7,82.7c0,45.7,37,82.7,82.7,82.7s82.7-37,82.7-82.7
					C510.6,262.6,473.5,225.6,427.9,225.6z M427.9,373.2c-35.9,0-64.9-29.1-64.9-64.9c0-35.9,29.1-64.9,64.9-64.9
					s64.9,29.1,64.9,64.9C492.8,344.1,463.7,373.2,427.9,373.2z"/>
				<path class="st7" d="M492.8,308.3c0,35.9-29.1,64.9-64.9,64.9s-64.9-29.1-64.9-64.9c0-35.9,29.1-64.9,64.9-64.9
					S492.8,272.4,492.8,308.3z"/>
				<polygon class="st8" points="434.7,306 478.4,310.7 480.4,307.5 487,314 478.8,318.1 477.2,314.4 433.8,308.4 				"/>
				<polygon class="st8" points="428.7,308.9 405.3,285.4 402.6,286.3 401.8,279.4 408.6,280.9 407.7,283.8 430.4,307.9 				"/>
				<path class="st9" d="M430.1,317.5c-4.7,0-8.5-3.8-8.5-8.5c0-4.7,3.8-8.5,8.5-8.5s8.5,3.8,8.5,8.5
					C438.6,313.7,434.8,317.5,430.1,317.5z"/>
				<g>
					<path class="st10" d="M427.7,236.9L427.7,236.9c-1.2,0-2.2-1-2.2-2.2v-6.9c0-1.2,1-2.2,2.2-2.2l0,0c1.2,0,2.2,1,2.2,2.2v6.9
						C429.9,235.9,428.9,236.9,427.7,236.9z"/>
					<path class="st10" d="M427.7,390.8L427.7,390.8c-1.2,0-2.2-1-2.2-2.2v-6.9c0-1.2,1-2.2,2.2-2.2l0,0c1.2,0,2.2,1,2.2,2.2v6.9
						C429.9,389.8,428.9,390.8,427.7,390.8z"/>
				</g>
				<g>
					<path class="st10" d="M478.1,257.8L478.1,257.8c-0.9-0.9-0.9-2.3,0-3.2l4.8-4.8c0.9-0.9,2.3-0.9,3.2,0l0,0
						c0.9,0.9,0.9,2.3,0,3.2l-4.8,4.8C480.4,258.7,478.9,258.7,478.1,257.8z"/>
					<path class="st10" d="M369.3,366.6L369.3,366.6c-0.9-0.9-0.9-2.3,0-3.2l4.8-4.8c0.9-0.9,2.3-0.9,3.2,0l0,0
						c0.9,0.9,0.9,2.3,0,3.2l-4.8,4.8C371.5,367.5,370.1,367.5,369.3,366.6z"/>
				</g>
				<g>
					<path class="st10" d="M498.9,308.2L498.9,308.2c0-1.2,1-2.2,2.2-2.2h6.9c1.2,0,2.2,1,2.2,2.2l0,0c0,1.2-1,2.2-2.2,2.2h-6.9
						C499.9,310.4,498.9,309.4,498.9,308.2z"/>
					<path class="st10" d="M345.1,308.2L345.1,308.2c0-1.2,1-2.2,2.2-2.2h6.9c1.2,0,2.2,1,2.2,2.2l0,0c0,1.2-1,2.2-2.2,2.2h-6.9
						C346.1,310.4,345.1,309.4,345.1,308.2z"/>
				</g>
				<g>
					<path class="st10" d="M478.1,358.6L478.1,358.6c0.9-0.9,2.3-0.9,3.2,0l4.8,4.8c0.9,0.9,0.9,2.3,0,3.2l0,0
						c-0.9,0.9-2.3,0.9-3.2,0l-4.8-4.8C477.2,360.9,477.2,359.5,478.1,358.6z"/>
					<path class="st10" d="M369.3,249.8L369.3,249.8c0.9-0.9,2.3-0.9,3.2,0l4.8,4.8c0.9,0.9,0.9,2.3,0,3.2l0,0
						c-0.9,0.9-2.3,0.9-3.2,0l-4.8-4.8C368.4,252.1,368.4,250.7,369.3,249.8z"/>
				</g>
			</g>
		</g>
		<g>
			<g>
				<circle class="st11" cx="100.2" cy="314.5" r="74.5"/>
				<circle class="st2" cx="100.2" cy="314.5" r="53.2"/>
				
					<ellipse transform="matrix(0.9846 -0.1746 0.1746 0.9846 -53.378 22.3307)" class="st11" cx="100.2" cy="314.5" rx="33.1" ry="33.1"/>
				<circle class="st2" cx="100.2" cy="314.5" r="17"/>
				<path class="st11" d="M95.3,314.5c0,2.7,2.2,5,5,5c2.7,0,5-2.2,5-5c0-2.7-2.2-5-5-5C97.5,309.6,95.3,311.8,95.3,314.5z"/>
			</g>
			<g>
				<line class="st12" x1="99.2" y1="315.1" x2="34.4" y2="268.9"/>
				<polygon class="st13" points="47.2,277.4 48.4,269.6 37.9,261.7 40.9,273 				"/>
				<polygon class="st13" points="47.2,277.4 40.1,280.2 30.3,274 40.9,273 				"/>
				<polygon class="st14" points="102.3,317.1 96.6,308.8 92.1,315.6 				"/>
			</g>
		</g>
		<g>
			<path class="st3" d="M374.4,378.3H151.5c0-134.2,95.9-129.4,95.9-167.8c0-27.6-49.5-46.5-77.4-96.8
				c-10.9-19.7-18.5-44.1-18.5-75.8h222.8c0,5.9-0.3,11.6-0.8,17.1c-9.1,97.9-95.1,119.1-95.1,155.4
				C278.5,248.9,374.4,244.1,374.4,378.3z"/>
			<path class="st15" d="M374.4,38c0,5.9-0.3,11.6-0.8,17.1C243.8,52.3,190.3,90.6,170,113.8c-10.9-19.7-18.5-44.1-18.5-75.8H374.4z
				"/>
			<path class="st2" d="M346.7,375.9H164.8l86.8-81.4l5.8-5.5v-79.8c0-17.7-14-30.8-31.6-47.5c-4.4-4.2-9.1-8.6-13.9-13.4h101.9
				c-4.7,4.8-9.4,9.2-13.8,13.4c-17.7,16.7-31.6,29.8-31.6,47.5v81L346.7,375.9z"/>
			<rect x="136.3" y="21.6" class="st16" width="249.9" height="23.6"/>
			<rect x="136.3" y="375.9" class="st16" width="249.9" height="23.6"/>
		</g>
		<g>
			<path class="st17" d="M67,333c-0.3,17.4,8,45.9,8,45.9l13.7,0.5c0,0,0.9-11.5,1.3-22.5c0.1-4.1,0.2-8.1,0.1-11.5
				c-0.3-12.5,4.5-53.1,4.5-53.1l1.6,3.5l0,0l17.5,37.2c-2.1,12.3,1.5,47.4,1.5,47.4l11.2,0.4c0,0,1.7-6.1,4-14.4
				c3.9-14.2,9.5-34.8,10.6-41.9c1.5-10.4-15.1-52.7-25.7-70.4c-0.8-1.3-1.6-2.5-2.3-3.5c0,0-22.5-37.9-44.5-6.6S67.2,315.6,67,333z
				"/>
			<polygon class="st18" points="115.3,380.4 116.1,392.8 125.1,393.2 126.5,380.9 			"/>
			<path class="st19" d="M116.1,392.8l9,0.3c0,0,4,4.7,10.7,6c6.8,1.2,5.6,5.8,2.3,7.1c-3.3,1.3-22.4-0.9-22.4-0.9L116.1,392.8z"/>
			<polygon class="st18" points="88.7,379.4 88.3,390.9 79.9,390.5 75,378.9 			"/>
			<path class="st19" d="M79.9,390.5c-1,5-2.8,13.8,0.6,14.2c3.4,0.4,12.4,0.5,14.5,0.6c4.1,0.2,3.1-5.5-3.7-8.6l-3-5.8"/>
			<path class="st20" d="M96,248.8c3.3,11.9,6.2,31.3,6.2,31.3l-3.8,2.4l-7.9-34"/>
			<path class="st21" d="M67,333c-0.3,17.4,8,45.9,8,45.9l13.7,0.5c0,0,0.9-11.5,1.3-22.5c-3.7-0.2-8.5,10.5-13.1,3.6
				c-5.8-8.7-3.4-19.6,5.2-19.3c8.6,0.3,8.5-7.4,3.4-9.8c-5-2.3-13-3.3-16.7-16.9c-3.7-13.6-5.9-48.7,4.8-56.2
				c10.7-7.5,29.1,1.6,41.7-4.2l0,0c-0.8-1.3-1.6-2.5-2.3-3.5c0,0-22.5-37.9-44.5-6.6S67.2,315.6,67,333z"/>
			<path class="st21" d="M113.8,333.1c-2.1,12.3,1.5,47.4,1.5,47.4l11.2,0.4c0,0,1.7-6.1,4-14.4c-4.4,3-9.2,0.5-8.8-8.5
				c0.6-11.3,2.3-16.5,8.8-18.8c6.6-2.2,9.7-10.4-2.1-10.3c-11.8,0-22.5-12.5-32.2-33.1L113.8,333.1z"/>
			<path class="st18" d="M174.7,168.8c2.9-0.5,7.4,1.8,11-0.5c3.6-2.3,7-2.1,6.8-4c-0.1-1.9-5.2-1.2-5.5-1.2
				c3.6-1.7,9.2-8.8,8.1-9.6c-0.6-0.5-1.6,0.5-2.2,1.3c1.3-2,3-5.4,2-6.2c-0.5-0.5-1.4,0.3-2.3,1.3c0.5-0.9,0.8-1.8,0.4-2.2
				c-0.5-0.6-1.6,0.4-2.3,1.2c0.6-1-0.3-1.3-1.6-0.4c-1.5,1-9.1,8.6-14.6,12.1c-5.5,3.5-15.1,8.2-26,12.8
				c-7.8,3.3-14.2,5.8-20.1,8.1c-2.3,0.9-4.5,1.8-6.7,2.7l6.9,13.2c0,0,7.4-2.8,14.4-5.5C150.2,188.9,171.8,169.3,174.7,168.8z"/>
			<path class="st22" d="M128.9,197.2c0,0,7.4-2.8,14.4-5.5c7-2.8,28.6-22.4,31.5-22.9c-6-0.5-23.4,15.7-27.9,18.3
				c-4.5,2.6-11.8,2.1-18.2-5.8c-2.3,0.9-4.5,1.8-6.7,2.7L128.9,197.2z"/>
			<path class="st23" d="M123.3,206.1l-12.7,6.8l1.2,9l0.6,4.7l0,1.3l0.7,22.7l-43.9-4.4l-7-24.8l-1.8,2.7L45,217.3c0,0,0,0,0,0
				l-1.4-0.6c0,0,7.2-15.7,11.4-24.7c2.9-6.3,8.2-8.9,15.9-9.6c3.4-0.3,7.2-0.2,11.5,0.1c0,0,6.6-0.8,13.9-0.3c2,0.1,4,0.3,6,0.7
				l-0.2-0.9c11.9,1.1,42.3-6.5,42.3-6.5l3.1,17.5L123.3,206.1z"/>
			<path class="st24" d="M64.6,154.8c0,12.1,6.2,22.9,6.2,22.9s16.9,7.1,35.4-2.7l-0.1-6.7l-0.4-20.8l-20-16.7
				c-12.9,3-19.5,10-20.8,20C64.7,152.1,64.6,153.5,64.6,154.8z"/>
			<path class="st25" d="M64.6,154.8c0,12.1,6.2,22.9,6.2,22.9s16.9,7.1,35.4-2.7l-0.1-6.7c-11.5,2.3-33.2,0.4-41.2-17.5
				C64.7,152.1,64.6,153.5,64.6,154.8z"/>
			<path class="st26" d="M113.1,250.7l-43.9-4.4l-7-24.8l-1.8,2.7L45,217.3c9.9,3.9,14.7-4.3,20.3-3.4c5.6,0.9,7.4,9.2,17.3,17.7
				c10,8.5,25.7,10.2,27.1-1.1c0.5-3.9,1.2-6.7,2.1-8.5l0.6,4.7l0,1.3L113.1,250.7z"/>
			<path class="st18" d="M38.8,233.7c0.8,4.4,22.3,10.6,28,12.9c5.7,2.3,9.9,1.2,11.1-1c1.2-2.1,0.8-3,1.2-3.7
				c0.4-0.7,2.7-2.2,2.4-3.6c-0.3-1.4-1.2-2.1-4.2-1.8c-3,0.4-5.3-0.4-5.3-0.4s3.4-2.3,3.4-4.4c0-0.4-0.1-0.8-0.2-1.1
				c-0.3-1-1.6-1.1-2.2-0.3c-0.6,0.9-1.5,2-2.5,2.5c-1.6,0.9-3.8,2.3-3.9,4.6c0,0-3.7-5.3-5.7-8.1c-2-2.8-3.9-3.3-3.9-3.3l1.9-2.5
				L45,217.3C40.3,223.7,38.1,229.3,38.8,233.7z"/>
			<path class="st18" d="M71,182.4c3.3,5.2,10.6,15.9,15.8,16.1c6.6,0.3,8.8-5.2,9.6-16.3c-7.3-0.5-13.9,0.3-13.9,0.3
				C78.2,182.2,74.3,182.1,71,182.4z"/>
			<g>
				<path class="st18" d="M90.5,176.6l-0.2,6.1c-0.1,2-1.8,3.6-3.8,3.5l0,0c-2-0.1-3.6-1.8-3.5-3.8l0.5-13.3L90.5,176.6z"/>
				<path class="st22" d="M83.2,175.7c2.2,6.4,7.1,6.3,7.1,6.3l0.2-5.4l-7.1-7.4L83.2,175.7z"/>
				<path class="st18" d="M75.5,165c0.7,5.1,6.3,12.9,14.4,13.2c7.4,0.3,18.9-8.1,18.1-26c-0.1-1.7,0.2-3.5,0.3-5.3l-8-9.4
					l-10.6,4.4l-2.4,1.2l-11.1,5.6C76.1,148.7,74.8,159.9,75.5,165z"/>
				<path class="st18" d="M77.5,157c-0.4-4.1-4.7-5.1-6.4-2.4c-1.7,2.7,1,11.4,4.3,10.5L77.5,157z"/>
				<path class="st22" d="M75.4,157.8c0.1-1.7-2.3-2.2-2.4-1c-0.1,3.2,1.3,4.7,2.2,5.2L75.4,157.8z"/>
				<path class="st27" d="M98.5,159.9c0,1,0.3,1.8,0.8,1.8c0.5,0,0.9-0.8,0.9-1.7c0-1-0.3-1.8-0.8-1.8C99,158.2,98.5,159,98.5,159.9
					z"/>
				<path class="st27" d="M88,159.5c0,1,0.3,1.8,0.8,1.8c0.5,0,0.9-0.8,0.9-1.7c0-1-0.3-1.8-0.8-1.8C88.5,157.8,88,158.6,88,159.5z"
					/>
				<path class="st28" d="M94.1,161.5c-0.6,2.3,0.8,3.9,0.6,5.1c-0.2,1.1-2.3,0.4-2.3,0.4"/>
				<path class="st10" d="M90.5,170c-2.1-0.7-5-3.5-5-3.5s-1.4,3.8,0.9,5.2C88.7,173.1,90.5,170,90.5,170z"/>
			</g>
			<path class="st24" d="M70.8,152.4c5.1,3.1,18.3,3.3,18.3,3.3l1.7-14l5.7,13.9l10.7,1.2l0.8-5.5l1.5,6.1l5.1,0.2
				c1.4-18.5-11.2-31.2-29-26.9C74.3,133.6,65.7,149.3,70.8,152.4z"/>
			<path class="st22" d="M38.8,233.7c0.8,4.4,22.3,10.6,28,12.9c5.7,2.3,9.9,1.2,11.1-1c-4.4,2.8-8.2-1.6-12.8-2.1
				c-4.6-0.5-24.4-7.5-22.9-13.1c1.5-5.6,5.3-6,14.9-4.4l1.9-2.5L45,217.3C40.3,223.7,38.1,229.3,38.8,233.7z"/>
			<polygon class="st23" points="115.4,241.4 112.4,228.1 112.4,226.7 			"/>
		</g>
		<g>
			<path class="st18" d="M304,205.8c-5.6-5.8-11.8-5-11.2-3.4c0.9,2.3,5,3.4,5,3.4s-7.8-0.8-8.4,1.6c-0.7,2.3,3.9,1,3.9,1
				s-6.9,1.1-6.6,3c0.2,1.8,4.8,0.9,4.8,0.9s-3.2,0.5-2.7,2.5c0.2,1,1.9,1,3.5,0.8c1.6-0.3,3.1-0.8,3.1-0.8s-3,1.4-2.5,2.7
				c0.5,1.4,14.2-2.5,14.2-2.5l-1.1-9.2L304,205.8z"/>
			<g>
				<path class="st24" d="M357.9,382.4c0,0.1-0.1,0.1-0.1,0.2c-0.1,0.1-0.1,0.2-0.2,0.3c-2.7,4.5-4.5,7.2-4.5,7.2l-11.6-2.3
					l12.2-65.5l1-5.5l16.2,7.5l6.2,2.8C380,342.6,365.7,369.3,357.9,382.4z"/>
				<path class="st24" d="M401,275.6c0,0-0.3,0.8-0.8,2.3c-1.3,3.4-3.8,10.3-6.9,17.9c-4.4,11-9.8,23.4-13.7,28.5
					c-0.8,1.1-1.7,2-2.6,2.8c-2.7,2.3-5.8,3.3-8.8,3.3c-5.3,0.1-10.5-2.7-13.6-6.1c-0.4-0.5-0.8-1.2-1-2c-2.5-8.3,3.5-33.1,9.8-59
					c1-4,2-8.1,2.9-12.1l16.6-4.3v0l2.5-0.6l6-1.6l0.7,2.4l4.4,14.4L401,275.6z"/>
				<path class="st29" d="M400.2,277.8c-1.3,3.4-3.8,10.3-6.9,17.9c-4.4,11-9.8,23.4-13.7,28.5c-0.8,1.1-1.7,2-2.6,2.8
					c3,15.6-11.3,42.3-19.2,55.4c4-6.3,6.5-37.9,10.4-52.1c0.8-2.9,1.7-5.1,2.6-6.2c5.5-6,14.2-22.1,14.3-60.3l8.9,1.3L400.2,277.8z
					"/>
				<path class="st30" d="M353.1,390c-2.3,6.8-1.1,13.3-3.7,15c-2.6,1.8-12.1-2.1-20.9-1.8c-8.8,0.3-13.8-5.6-11.8-9.4
					c2.1-3.8,18.7,0.9,24.8-6.2L353.1,390z"/>
				<path class="st31" d="M336.1,390.9c2.8,3.3,2.3,4.4-0.7,5.7c-3,1.3-5-4.8-5-4.8L336.1,390.9z"/>
				<path class="st24" d="M423.5,316.7c16.2,11.2,27.3,65.9,27.3,65.9l-10.2,3.7l-38-62L423.5,316.7z"/>
				<path class="st30" d="M450.8,382.6c1.2,4.3,8,12.5,9.1,17l-19.3,6.9c-1.3,0.5-2.7-0.3-2.9-1.7c-0.2-1.3-0.3-2.9,0.4-4.7
					c1.3-3.9,4.1-5.7,4.1-7.9c0-2.2-1.6-6-1.6-6L450.8,382.6z"/>
				<path class="st31" d="M442.1,392.3c5.3-1.6,8.9-1.8,9.3,0.2c0.4,2-8.2,2.2-12.1,4.9L442.1,392.3z"/>
				<path class="st24" d="M424.6,328.4c-6.9,5.5-13.3,8.2-19.5,0c-2.7-3.6-7.4-17.3-11.9-32.6c-3.2-10.9-6.2-22.5-8.1-31.9
					c-1.6-7.9-2.5-14.2-2.2-17.1v0c0-0.3,0.1-0.6,0.2-0.9c2.3-6,18.1-0.7,28.3,3.5c5.1,2.1,8.8,3.9,8.8,3.9c0.2,1.5,0.5,3.1,0.8,4.8
					C425.1,282.5,431.1,323.2,424.6,328.4z"/>
				<path class="st29" d="M421.1,258c-7.9-0.3-16.3,1.5-24.5,3.3c-3.9,0.9-7.8,1.8-11.5,2.5c-8.3,1.6-15.9,2.2-21.7-0.6
					c1-4,2-8.1,2.9-12.1l16.6-4.3v0c0-0.3,0.1-0.6,0.2-0.9l2.2,0.3l6.8,0.8l19.3,2.4c5.1,2.1,8.8,3.9,8.8,3.9
					C420.6,254.8,420.9,256.4,421.1,258z"/>
				<path class="st22" d="M377.3,165.8c-29.4,22.2-54.4,40.7-73.2,40v15.3c0,0,47.5,1.8,67.3-18.8
					C391.1,181.7,377.3,165.8,377.3,165.8z"/>
				<path class="st22" d="M420.4,253.3h-56.9c0,0-0.1-21.2,1.1-42.1c0.9-15.9,2.5-31.8,5.4-37.9c6.7-14.3,26,2,26,2l10.9,18.3
					l5.3,8.9c1.8,5.7,3.4,14.4,4.7,23c0,0.1,0,0.2,0,0.3C419,239.6,420.4,253.3,420.4,253.3z"/>
				<path class="st32" d="M416.8,225.8c-27.6,13.2-30.9,22.3-35.8,27.5h-17.5c0,0-0.1-21.2,1.1-42.1c7.5-2,37.9-10.3,42.2-17.7
					c4.7-7.9,9.5,27.9,10,32C416.8,225.5,416.8,225.6,416.8,225.8C416.8,225.8,416.8,225.8,416.8,225.8z"/>
				<path class="st18" d="M336,237.7c-5.6-5.8-11.8-5-11.2-3.4c0.9,2.3,5,3.4,5,3.4s-7.8-0.8-8.4,1.6c-0.7,2.3,3.9,1,3.9,1
					s-6.9,1.1-6.6,3c0.2,1.8,4.8,0.9,4.8,0.9s-3.2,0.5-2.7,2.5c0.2,1,1.9,1,3.5,0.8c1.6-0.3,3.1-0.8,3.1-0.8s-3,1.4-2.5,2.7
					c0.5,1.4,14.2-2.5,14.2-2.5l-1.1-9.2L336,237.7z"/>
				<path class="st22" d="M382,165.1c19,1,40.9,18.5,34.8,39.7c-6.1,21.3-60.5,47.5-78.3,44.5l-2-12.5c0,0,44.5-18.2,51.9-38
					c7.5-19.8-9.1-30.8-9.1-30.8L382,165.1z"/>
				<path class="st24" d="M354.5,124c1.5-5.7,8.1-6.5,8.3,0c0,0,5.1-10,13.8-9.5c8.8,0.6,2,5.6,2,5.6s13.4,0.8,17.6,10.5
					c4.2,9.7-3.3,23.9-14.8,30.1c-11.4,6.2-25.3-29.2-25.3-29.2L354.5,124z"/>
				<g>
					<path class="st18" d="M374,163.5v5c0,2.6,2.1,4.8,4.8,4.8l0,0c2.6,0,4.8-2.1,4.8-4.8v-12L374,163.5z"/>
					<path class="st22" d="M383.5,162.9c-3.2,6.2-9.5,5.9-9.5,5.9v-5.4l9.5-7.1V162.9z"/>
					<path class="st18" d="M354.5,133.4c-0.7,21.1,8.9,31.7,17,31.7c8.1,0,13.9-7.5,14.8-12.6c0.8-5,0-16.2,0-16.2l-13.1-7.3
						l-7.3-3.3L354.5,133.4z"/>
					<path class="st18" d="M384.6,144.5c0.6-4.1,4.8-4.8,6.4-2.1c1.6,2.7-1.4,11.3-4.7,10.2L384.6,144.5z"/>
					<path class="st22" d="M386.7,145.5c0-1.7,2.4-2.1,2.4-0.9c0,3.2-1.5,4.6-2.4,5V145.5z"/>
					<path class="st27" d="M363.7,146.7c0,1-0.4,1.8-0.9,1.8c-0.5,0-0.9-0.8-0.9-1.8c0-1,0.4-1.8,0.9-1.8
						C363.3,145,363.7,145.7,363.7,146.7z"/>
					<path class="st27" d="M374.1,146.7c0,1-0.4,1.8-0.9,1.8c-0.5,0-0.9-0.8-0.9-1.8c0-1,0.4-1.8,0.9-1.8
						C373.7,145,374.1,145.7,374.1,146.7z"/>
					<path class="st28" d="M368,148.5c0.5,2.3-0.9,3.9-0.8,5c0.2,1.1,2.3,0.5,2.3,0.5"/>
					<path class="st10" d="M371.3,157c2.1-0.7,5.1-3.3,5.1-3.3s1.2,3.8-1.1,5.1C372.9,160.1,371.3,157,371.3,157z"/>
				</g>
				<path class="st24" d="M381.5,139.2c2.4,5.8,3.6,8.5,3.6,8.5c1-1,2.3-10.5,2.3-10.5l-6.4-2.6L381.5,139.2z"/>
				<path class="st24" d="M354.5,124c-7.2,13.2,4.9,20.1,9.2,19.9c4.3-0.3,0-4.9,0-4.9s12.6,8.1,17,5.9s1.7-6.6,1.7-6.6
					s3.6,5.7,8.6,4.1c4.9-1.6,0.7-12.3-6.4-14.6c-7.1-2.3-18.7-2-18.7-2l-8,3L354.5,124z"/>
				<path class="st22" d="M401.7,243.5c-0.2,0-0.3,0-0.5-0.1C401.4,243.5,401.6,243.5,401.7,243.5z"/>
			</g>
		</g>
		<path class="st23" d="M243.7,375.9h-78.9l86.8-81.4c-11.3,34.9-34.6,51.4-29.2,66.8C224.8,368.2,233.4,372.8,243.7,375.9z"/>
		<g>
			<path class="st0" d="M537.1,100.1c3.1-3,3.2-8.5,0.2-11.6s-8.5-3.1-11.6-0.1c3.5-3.5,4.2-9.3,2.1-13.7c-2.1-4.5-6.6-7.6-11.4-8.5
				c-7.6-1.5-16.4,2.8-18.3,10.3c1.9-3.5,1.4-8-0.8-11.3c-2.2-3.3-5.9-5.4-9.7-6.4c-7.4-1.9-15.7,0.3-21.1,5.7
				c-5.4,5.3-7.8,13.6-6.1,21c-0.2-2.4-3.6-3.4-5.6-2.1s-2.7,3.9-2.9,6.3c-0.4,5.3,2.3,11.7,7.6,12.5l4.9,0.2c24.2,0,48.3,0,72.5,0
				c-4.3,0-8.6,0-12.9,0L537.1,100.1z"/>
		</g>
		<g>
			<path class="st0" d="M461.1,161.8c1.6-1.6,1.7-4.5,0.1-6.1s-4.5-1.6-6.1-0.1c1.8-1.8,2.2-4.9,1.1-7.3c-1.1-2.4-3.5-4-6-4.5
				c-4-0.8-8.6,1.5-9.7,5.5c1-1.8,0.7-4.2-0.4-6c-1.2-1.7-3.1-2.9-5.1-3.4c-3.9-1-8.3,0.2-11.2,3c-2.9,2.8-4.1,7.2-3.2,11.1
				c-0.1-1.3-1.9-1.8-3-1.1c-1.1,0.7-1.5,2.1-1.5,3.3c-0.2,2.8,1.2,6.2,4,6.6l2.6,0.1c12.8,0,25.5,0,38.3,0c-2.3,0-4.5,0-6.8,0
				L461.1,161.8z"/>
		</g>
		<g>
			<path class="st0" d="M396.8,91.4c2.4-2.3,2.5-6.7,0.1-9.1c-2.3-2.4-6.7-2.4-9.1-0.1c2.7-2.7,3.3-7.2,1.6-10.7
				c-1.6-3.5-5.1-5.9-8.9-6.7c-5.9-1.2-12.8,2.2-14.3,8.1c1.5-2.7,1.1-6.3-0.6-8.8c-1.7-2.6-4.6-4.2-7.6-5
				c-5.8-1.5-12.3,0.3-16.5,4.4c-4.3,4.2-6.1,10.6-4.7,16.4c-0.1-1.9-2.8-2.7-4.4-1.6c-1.6,1-2.1,3.1-2.3,5
				c-0.3,4.2,1.8,9.1,5.9,9.8l3.8,0.2c18.9,0,37.8,0,56.7,0c-3.4,0-6.7,0-10.1,0L396.8,91.4z"/>
		</g>
		<g>
			<path class="st0" d="M60.8,144.5c2.2-2.1,2.3-6.1,0.1-8.2c-2.1-2.2-6.1-2.2-8.2-0.1c2.5-2.5,3-6.6,1.5-9.8
				c-1.5-3.2-4.7-5.4-8.1-6.1c-5.4-1.1-11.7,2-13,7.3c1.4-2.5,1-5.7-0.6-8c-1.6-2.3-4.2-3.9-6.9-4.6c-5.3-1.4-11.2,0.2-15,4
				c-3.9,3.8-5.6,9.7-4.3,15c-0.1-1.7-2.6-2.4-4-1.5c-1.4,0.9-2,2.8-2.1,4.5c-0.3,3.8,1.6,8.3,5.4,8.9l3.5,0.2c17.2,0,34.4,0,51.6,0
				c-3.1,0-6.1,0-9.2,0L60.8,144.5z"/>
		</g>
	</g>
</g>
</svg>
