<?xml version="1.0" encoding="UTF-8"?>
<svg id="a" data-name="Layer 1" xmlns="http://www.w3.org/2000/svg" viewBox="0 0 612 792">
  <defs>
    <style>
      .b {
        fill: #1c3a6a;
      }

      .b, .c, .d, .e, .f, .g, .h, .i, .j, .k {
        stroke-width: 0px;
      }

      .l {
        letter-spacing: 0em;
      }

      .m, .n {
        font-family: MrEavesXLModOT-Bold, 'Mr Eaves XL Mod OT';
        font-size: 22.49px;
        font-weight: 700;
      }

      .o {
        letter-spacing: 0em;
      }

      .c {
        fill: #c6a554;
      }

      .d {
        fill: #ce3e3e;
      }

      .p {
        font-family: MyriadPro-Regular, 'Myriad Pro';
        font-size: 12px;
      }

      .f {
        fill: #23868e;
      }

      .g {
        fill: #898888;
      }

      .n {
        fill: #fff;
      }

      .h {
        fill: #fe4a49;
      }

      .q {
        letter-spacing: .04em;
      }

      .r {
        letter-spacing: .02em;
      }

      .s {
        letter-spacing: .05em;
      }

      .i {
        fill: #2ab7ca;
      }

      .t {
        letter-spacing: .02em;
      }

      .j {
        fill: #e6e6ea;
      }

      .k {
        fill: #fed766;
      }
    </style>
  </defs>
  <rect class="b" x="92.61" y="476.41" width="400.64" height="100.4"/>
  <text class="p" transform="translate(92.61 450.4)"><tspan x="0" y="0">Option 2</tspan></text>
  <rect class="b" x="142.44" y="228.81" width="321.69" height="100.4"/>
  <text class="m" transform="translate(237.54 101.25) rotate(-.17)"><tspan class="t" x="0" y="0">Prope</tspan><tspan class="q" x="56.94" y="0">r</tspan><tspan class="t" x="65.5" y="0">ty I</tspan><tspan class="l" x="94.85" y="0">n</tspan><tspan class="o" x="107.15" y="0">v</tspan><tspan class="r" x="117.63" y="0">ento</tspan><tspan class="s" x="162.06" y="0">r</tspan><tspan class="r" x="170.7" y="0">y </tspan><tspan class="t"><tspan x="0" y="26.98">Management System</tspan></tspan></text>
  <g>
    <path class="e" d="M244.03,673.86h-2.38s.01,4.91.01,4.91h-2.74s-.04-13.49-.04-13.49l5.13-.02c3.24,0,4.69,1.97,4.69,4.28,0,2.34-1.43,4.3-4.67,4.31ZM243.56,667.23h-1.93s.01,4.68.01,4.68h1.93c1.78-.01,2.4-1.07,2.4-2.35,0-1.26-.64-2.34-2.41-2.33Z"/>
    <path class="e" d="M253.25,673.43l.02,5.31h-2.61s-.03-9.71-.03-9.71h2.38s.12,1.77.12,1.77c.56-1.13,1.97-2.05,3.61-2.06v2.54c-1.77-.42-3.5.48-3.49,2.15Z"/>
    <path class="e" d="M263.54,679.06c-3.15,0-5.47-2.25-5.48-5.2,0-2.92,2.3-5.22,5.45-5.23,3.13,0,5.45,2.28,5.46,5.2,0,2.95-2.3,5.23-5.43,5.23ZM263.51,670.54c-1.75,0-2.9,1.36-2.89,3.31,0,1.98,1.18,3.3,2.91,3.3,1.73,0,2.88-1.34,2.87-3.32,0-1.96-1.16-3.3-2.89-3.3Z"/>
    <path class="e" d="M277.44,678.93c-1.3,0-2.63-.53-3.47-1.59l.02,5.71h-2.61s-.04-14.09-.04-14.09h2.36s.09,1.54.09,1.54c.81-1.19,2.24-1.83,3.62-1.83,2.63,0,4.57,2.19,4.58,5.11,0,2.92-1.92,5.13-4.55,5.14ZM276.6,670.61c-1.53,0-2.76,1.2-2.76,3.2,0,2,1.25,3.19,2.78,3.19,1.53,0,2.76-1.2,2.76-3.2,0-2-1.25-3.19-2.78-3.19Z"/>
    <path class="e" d="M292.96,673.82l-6.48.02c-.06,1.48.71,3.17,3.32,3.16,1.1,0,2.41-.5,3.15-1.16v1.89c-.92.72-2.33,1.15-3.95,1.16-2.99,0-5.09-2.17-5.1-5.18,0-3.1,2.37-5.07,4.89-5.08,2.47,0,4.32,1.54,4.33,3.83,0,.43-.06,1.01-.15,1.35ZM288.86,670.31c-1.1,0-2.04.64-2.26,2.14h4.16c.22-1.18-.55-2.15-1.9-2.14Z"/>
    <path class="e" d="M298.35,673.29l.02,5.31h-2.61s-.03-9.71-.03-9.71h2.38s.12,1.77.12,1.77c.56-1.13,1.97-2.05,3.61-2.06v2.54c-1.77-.42-3.5.48-3.49,2.15Z"/>
    <path class="e" d="M308.01,670.56l.02,8.01h-2.61s-.02-8-.02-8h-2.05s0-1.7,0-1.7h2.05s0-2.66,0-2.66h2.61s0,2.65,0,2.65h2.05s0,1.7,0,1.7h-2.05Z"/>
    <path class="e" d="M315.14,682.93h-2.52s2.14-4.92,2.14-4.92l-3.99-9.16h2.56s2.7,6.48,2.7,6.48l2.63-6.51h2.47s-6.01,14.11-6.01,14.11Z"/>
    <path class="e" d="M327.83,678.51l-.04-13.5h2.74s.04,13.49.04,13.49h-2.74Z"/>
    <path class="e" d="M340.71,678.47l-.02-5.38c0-1.89-.66-2.52-1.85-2.51-1.24,0-2.58,1.13-2.58,2.48l.02,5.42h-2.61s-.03-9.71-.03-9.71h2.38s.12,1.79.12,1.79c.65-1.24,2.11-2.08,3.59-2.08,2.59,0,3.56,1.79,3.57,4.2l.02,5.78h-2.61Z"/>
    <path class="e" d="M350.76,678.44h-1.89s-4.28-9.7-4.28-9.7h2.56s2.7,6.37,2.7,6.37l2.63-6.4h2.47s-4.2,9.72-4.2,9.72Z"/>
    <path class="e" d="M364.96,673.61l-6.48.02c-.06,1.48.71,3.17,3.32,3.16,1.1,0,2.41-.5,3.15-1.16v1.89c-.92.72-2.33,1.15-3.95,1.16-2.99,0-5.09-2.17-5.1-5.18,0-3.1,2.37-5.07,4.89-5.08,2.47,0,4.32,1.54,4.33,3.83,0,.43-.06,1.01-.15,1.35ZM360.86,670.09c-1.1,0-2.04.64-2.26,2.14h4.16c.22-1.18-.55-2.15-1.9-2.14Z"/>
    <path class="e" d="M374.8,678.37l-.02-5.38c0-1.89-.66-2.52-1.85-2.51-1.24,0-2.58,1.13-2.58,2.48l.02,5.42h-2.61s-.03-9.71-.03-9.71h2.38s.12,1.79.12,1.79c.65-1.24,2.11-2.08,3.59-2.08,2.59,0,3.56,1.79,3.57,4.2l.02,5.78h-2.61Z"/>
    <path class="e" d="M384.09,670.33l.02,8.01h-2.61s-.02-8-.02-8h-2.05s0-1.7,0-1.7h2.05s0-2.66,0-2.66h2.61s0,2.65,0,2.65h2.05s0,1.7,0,1.7h-2.05Z"/>
    <path class="e" d="M393.06,678.67c-3.15,0-5.47-2.25-5.48-5.2,0-2.92,2.3-5.23,5.45-5.23,3.13,0,5.45,2.28,5.46,5.2,0,2.95-2.3,5.23-5.43,5.23ZM393.04,670.15c-1.75,0-2.9,1.36-2.89,3.31,0,1.98,1.18,3.3,2.91,3.3,1.73,0,2.88-1.34,2.87-3.32,0-1.96-1.16-3.3-2.89-3.3Z"/>
    <path class="e" d="M403.48,672.97l.02,5.31h-2.61s-.03-9.71-.03-9.71h2.38s.12,1.77.12,1.77c.56-1.13,1.97-2.05,3.61-2.06v2.54c-1.77-.42-3.5.48-3.49,2.15Z"/>
    <path class="e" d="M412.5,682.64h-2.52s2.14-4.92,2.14-4.92l-3.99-9.16h2.56s2.7,6.48,2.7,6.48l2.63-6.51h2.47s-6.01,14.11-6.01,14.11Z"/>
    <path class="e" d="M251.14,705.73l-.03-8.28c0-.31.06-1.19.09-1.28l-.49,1.28-3.6,8.29h-1.69s-3.65-8.26-3.65-8.26c-.14-.31-.43-1.15-.48-1.28,0,.07.07.97.07,1.28l.03,8.28h-2.41s-.04-13.49-.04-13.49h2.92s4.48,9.85,4.48,9.85l4.4-9.89h2.83s.04,13.49.04,13.49h-2.5Z"/>
    <path class="e" d="M264.48,705.69l-.1-1.55c-.81,1.19-2.24,1.83-3.62,1.83-2.63,0-4.57-2.19-4.58-5.11,0-2.92,1.92-5.13,4.55-5.14,1.37,0,2.81.62,3.63,1.81l.09-1.55h2.36s.03,9.71.03,9.71h-2.36ZM261.55,697.64c-1.53,0-2.76,1.2-2.76,3.2,0,2,1.25,3.19,2.78,3.19,1.53,0,2.76-1.2,2.76-3.2,0-2-1.25-3.19-2.78-3.19Z"/>
    <path class="e" d="M276.89,705.65l-.02-5.38c0-1.89-.66-2.52-1.85-2.51-1.24,0-2.58,1.13-2.58,2.48l.02,5.42h-2.61s-.03-9.71-.03-9.71h2.38s.12,1.79.12,1.79c.65-1.24,2.11-2.08,3.59-2.08,2.59,0,3.56,1.79,3.57,4.2l.02,5.78h-2.61Z"/>
    <path class="e" d="M290.2,705.61l-.1-1.55c-.81,1.19-2.24,1.83-3.62,1.83-2.63,0-4.57-2.19-4.58-5.11,0-2.92,1.92-5.13,4.55-5.14,1.37,0,2.81.62,3.63,1.81l.09-1.55h2.36s.03,9.71.03,9.71h-2.36ZM287.27,697.57c-1.53,0-2.76,1.2-2.76,3.2,0,2,1.25,3.19,2.78,3.19,1.53,0,2.76-1.2,2.76-3.2,0-2-1.25-3.19-2.78-3.19Z"/>
    <path class="e" d="M300.15,710.17c-1.46,0-3.15-.51-4.28-1.13v-2c1.46.9,2.63,1.25,4.23,1.25,1.62,0,2.94-.95,2.94-3.41v-.63c-.83,1.06-2.16,1.6-3.46,1.61-2.63,0-4.57-2.19-4.58-5.11,0-2.92,1.92-5.13,4.55-5.14,1.37,0,2.81.62,3.63,1.81l.09-1.55h2.36s.03,8.74.03,8.74c.01,4.63-3.02,5.56-5.49,5.57ZM300.36,697.53c-1.53,0-2.76,1.2-2.76,3.2,0,2,1.25,3.19,2.78,3.19,1.53,0,2.76-1.2,2.76-3.2,0-2-1.25-3.19-2.78-3.19Z"/>
    <path class="e" d="M317.17,700.74l-6.48.02c-.06,1.48.71,3.17,3.32,3.16,1.1,0,2.41-.5,3.15-1.16v1.89c-.92.72-2.33,1.15-3.95,1.16-2.99,0-5.09-2.17-5.1-5.18,0-3.1,2.37-5.07,4.89-5.08,2.47,0,4.32,1.54,4.33,3.83,0,.43-.06,1.01-.15,1.35ZM313.07,697.22c-1.1,0-2.04.64-2.26,2.14h4.16c.22-1.18-.55-2.15-1.9-2.14Z"/>
    <path class="e" d="M333.29,705.48l-.02-5.47c0-1.75-.48-2.43-1.67-2.42-1.19,0-2.38,1.02-2.38,2.48l.02,5.42h-2.61s-.02-5.46-.02-5.46c0-1.75-.46-2.43-1.67-2.42-1.19,0-2.38,1.02-2.38,2.48l.02,5.42h-2.61s-.03-9.71-.03-9.71h2.38s.12,1.79.12,1.79c.72-1.28,2.02-2.08,3.41-2.08,1.82,0,2.72.87,3.11,2.17.87-1.38,2.13-2.19,3.57-2.19,2.59,0,3.33,1.79,3.34,4.2l.02,5.78h-2.61Z"/>
    <path class="e" d="M347.39,700.64l-6.48.02c-.06,1.48.71,3.17,3.32,3.16,1.1,0,2.41-.5,3.15-1.16v1.89c-.92.72-2.33,1.15-3.95,1.16-2.99,0-5.09-2.17-5.1-5.18,0-3.1,2.37-5.07,4.89-5.08,2.47,0,4.32,1.54,4.33,3.83,0,.43-.06,1.01-.15,1.35ZM343.29,697.13c-1.1,0-2.04.64-2.26,2.14h4.16c.22-1.18-.55-2.15-1.9-2.14Z"/>
    <path class="e" d="M357.23,705.41l-.02-5.38c0-1.89-.66-2.52-1.85-2.51-1.24,0-2.58,1.13-2.58,2.48l.02,5.42h-2.61s-.03-9.71-.03-9.71h2.38s.12,1.79.12,1.79c.65-1.24,2.11-2.08,3.59-2.08,2.59,0,3.56,1.79,3.57,4.2l.02,5.78h-2.61Z"/>
    <path class="e" d="M366.52,697.37l.02,8.01h-2.61s-.02-8-.02-8h-2.05s0-1.7,0-1.7h2.05s0-2.66,0-2.66h2.61s0,2.65,0,2.65h2.05s0,1.7,0,1.7h-2.05Z"/>
    <path class="e" d="M379.61,705.61c-2.25,0-3.87-.87-4.79-1.67l.62-2.16c.9.85,2.32,1.81,4.17,1.81,1.35,0,2.38-.68,2.38-1.87,0-1.12-.63-1.66-2.84-2.24-2.84-.69-3.96-2.19-3.97-4.13,0-2.2,1.74-3.81,4.64-3.81,1.66,0,3.15.62,4.05,1.31l-.58,1.91c-.95-.63-2.3-1.16-3.49-1.16-1.33,0-2.11.59-2.11,1.56,0,.79.5,1.37,2.32,1.84,3.15.78,4.5,2.1,4.51,4.44,0,2.9-2.37,4.17-4.91,4.18Z"/>
    <path class="e" d="M389.92,709.69h-2.52s2.14-4.92,2.14-4.92l-3.99-9.16h2.56s2.7,6.48,2.7,6.48l2.63-6.51h2.47s-6.01,14.11-6.01,14.11Z"/>
    <path class="e" d="M400.86,705.59c-2,0-3.49-.84-3.89-1.09l.42-1.8c.79.47,1.98,1.07,3.42,1.07,1.04,0,1.75-.32,1.75-1.13,0-.7-.75-.94-2.07-1.25-2.39-.51-3.25-1.77-3.25-3.14,0-1.53,1.18-2.97,3.82-2.98,1.6,0,2.99.69,3.31.87l-.42,1.71c-.83-.49-1.85-.8-2.81-.8-1.06,0-1.57.36-1.57.95,0,.65.68.94,1.71,1.19,2.56.53,3.6,1.72,3.61,3.03,0,2.09-1.52,3.38-4.02,3.39Z"/>
    <path class="e" d="M410.91,697.24l.02,8.01h-2.61s-.02-8-.02-8h-2.05s0-1.7,0-1.7h2.05s0-2.66,0-2.66h2.61s0,2.65,0,2.65h2.05s0,1.7,0,1.7h-2.05Z"/>
    <path class="e" d="M423.55,700.41l-6.48.02c-.06,1.48.71,3.17,3.32,3.16,1.1,0,2.41-.5,3.15-1.16v1.89c-.92.72-2.33,1.15-3.95,1.16-2.99,0-5.09-2.17-5.1-5.18,0-3.1,2.37-5.07,4.89-5.08,2.47,0,4.32,1.54,4.33,3.83,0,.43-.06,1.01-.15,1.35ZM419.45,696.9c-1.1,0-2.04.64-2.26,2.14h4.16c.22-1.18-.55-2.15-1.9-2.14Z"/>
    <path class="e" d="M439.67,705.16l-.02-5.47c0-1.75-.48-2.43-1.67-2.42-1.19,0-2.38,1.02-2.38,2.48l.02,5.42h-2.61s-.02-5.46-.02-5.46c0-1.75-.46-2.43-1.67-2.42-1.19,0-2.38,1.02-2.38,2.48l.02,5.42h-2.61s-.03-9.71-.03-9.71h2.38s.12,1.79.12,1.79c.72-1.28,2.02-2.08,3.41-2.08,1.82,0,2.72.87,3.11,2.17.87-1.38,2.13-2.19,3.57-2.19,2.59,0,3.33,1.79,3.34,4.2l.02,5.78h-2.61Z"/>
  </g>
  <g>
    <polygon class="k" points="379.15 524.27 341.18 513.96 341.18 502.7 379.15 517.34 379.15 524.27"/>
    <polygon class="i" points="379.15 535.65 341.18 531.5 341.18 520.2 379.15 528.68 379.15 535.65"/>
    <polygon class="j" points="341.18 537.14 341.18 546.57 341.18 546.57 341.18 567.84 379.15 540.06 341.18 537.14"/>
    <polygon class="c" points="320.44 522.95 341.18 513.95 341.18 502.7 320.44 514.65 320.44 522.95"/>
    <polygon class="h" points="379.15 512.72 341.18 496.63 341.18 485.38 379.15 505.79 379.15 512.72"/>
    <polygon class="d" points="320.44 510.47 341.18 496.63 341.18 485.38 320.44 503.11 320.44 510.47"/>
    <polygon class="f" points="320.44 534.99 341.18 531.5 341.18 520.2 320.44 527.59 320.44 534.99"/>
    <polygon class="g" points="320.44 539.62 341.18 567.84 341.18 546.57 341.18 537.14 320.44 539.62"/>
  </g>
  <g>
    <polygon class="k" points="284.69 524.27 246.72 513.96 246.72 502.7 284.69 517.34 284.69 524.27"/>
    <polygon class="h" points="284.69 535.65 246.72 531.5 246.72 520.2 284.69 528.68 284.69 535.65"/>
    <polygon class="j" points="246.72 537.14 246.72 546.57 246.72 546.57 246.72 567.84 284.69 540.06 246.72 537.14"/>
    <polygon class="c" points="225.98 522.95 246.72 513.95 246.72 502.7 225.98 514.65 225.98 522.95"/>
    <polygon class="i" points="284.69 512.72 246.72 496.63 246.72 485.38 284.69 505.79 284.69 512.72"/>
    <polygon class="f" points="225.98 510.47 246.72 496.63 246.72 485.38 225.98 503.11 225.98 510.47"/>
    <polygon class="d" points="225.98 534.99 246.72 531.5 246.72 520.2 225.98 527.59 225.98 534.99"/>
    <polygon class="g" points="225.98 539.62 246.72 567.84 246.72 546.57 246.72 537.14 225.98 539.62"/>
  </g>
  <g>
    <polygon class="h" points="470.13 528.31 432.16 518 432.16 506.74 470.13 521.38 470.13 528.31"/>
    <polygon class="k" points="470.13 539.69 432.16 535.54 432.16 524.23 470.13 532.72 470.13 539.69"/>
    <polygon class="j" points="432.16 541.18 432.16 550.61 432.16 550.61 432.16 571.88 470.13 544.1 432.16 541.18"/>
    <polygon class="d" points="411.42 526.99 432.16 517.99 432.16 506.74 411.42 518.69 411.42 526.99"/>
    <polygon class="i" points="470.13 516.76 432.16 500.67 432.16 489.42 470.13 509.83 470.13 516.76"/>
    <polygon class="f" points="411.42 514.51 432.16 500.67 432.16 489.42 411.42 507.15 411.42 514.51"/>
    <polygon class="c" points="411.42 539.02 432.16 535.54 432.16 524.23 411.42 531.63 411.42 539.02"/>
    <polygon class="g" points="411.42 543.66 432.16 571.88 432.16 550.61 432.16 541.18 411.42 543.66"/>
  </g>
  <g>
    <polygon class="h" points="188.19 524.27 150.22 513.96 150.22 502.7 188.19 517.34 188.19 524.27"/>
    <polygon class="i" points="188.19 535.65 150.22 531.5 150.22 520.2 188.19 528.68 188.19 535.65"/>
    <polygon class="j" points="150.22 537.14 150.22 546.57 150.22 546.57 150.22 567.84 188.19 540.06 150.22 537.14"/>
    <polygon class="d" points="129.48 522.95 150.22 513.95 150.22 502.7 129.48 514.65 129.48 522.95"/>
    <polygon class="k" points="188.19 512.72 150.22 496.63 150.22 485.38 188.19 505.79 188.19 512.72"/>
    <polygon class="c" points="129.48 510.47 150.22 496.63 150.22 485.38 129.48 503.11 129.48 510.47"/>
    <polygon class="f" points="129.48 534.99 150.22 531.5 150.22 520.2 129.48 527.59 129.48 534.99"/>
    <polygon class="g" points="129.48 539.62 150.22 567.84 150.22 546.57 150.22 537.14 129.48 539.62"/>
  </g>
  <text class="n" transform="translate(237.54 269.39) rotate(-.17)"><tspan class="t" x="0" y="0">Prope</tspan><tspan class="q" x="56.94" y="0">r</tspan><tspan class="t" x="65.5" y="0">ty I</tspan><tspan class="l" x="94.85" y="0">n</tspan><tspan class="o" x="107.15" y="0">v</tspan><tspan class="r" x="117.63" y="0">ento</tspan><tspan class="s" x="162.06" y="0">r</tspan><tspan class="r" x="170.7" y="0">y </tspan><tspan class="t"><tspan x="0" y="26.98">Management System</tspan></tspan></text>
  <text class="p" transform="translate(86.44 99.29)"><tspan x="0" y="0">Option 2</tspan></text>
  <rect class="h" x="238.74" y="153.63" width="29.96" height="29.96" rx="14.98" ry="14.98"/>
  <rect class="i" x="277.95" y="153.63" width="29.96" height="29.96" rx="14.98" ry="14.98"/>
  <rect class="k" x="317.15" y="153.63" width="29.96" height="29.96" rx="14.98" ry="14.98"/>
  <rect class="j" x="356.36" y="153.63" width="29.96" height="29.96" rx="14.98" ry="14.98"/>
  <g>
    <polygon class="h" points="218.84 276.67 180.87 266.36 180.87 255.11 218.84 269.74 218.84 276.67"/>
    <polygon class="k" points="218.84 288.05 180.87 283.9 180.87 272.6 218.84 281.09 218.84 288.05"/>
    <polygon class="j" points="180.87 289.54 180.87 298.97 180.87 298.98 180.87 320.25 218.84 292.47 180.87 289.54"/>
    <polygon class="d" points="160.13 275.35 180.87 266.36 180.87 255.11 160.13 267.06 160.13 275.35"/>
    <polygon class="i" points="218.84 265.13 180.87 249.04 180.87 237.78 218.84 258.19 218.84 265.13"/>
    <polygon class="f" points="160.13 262.87 180.87 249.03 180.87 237.78 160.13 255.51 160.13 262.87"/>
    <polygon class="c" points="160.13 287.39 180.87 283.9 180.87 272.6 160.13 279.99 160.13 287.39"/>
    <polygon class="g" points="160.13 292.02 180.87 320.25 180.87 298.98 180.87 289.54 160.13 292.02"/>
  </g>
  <g>
    <polygon class="h" points="218.84 109.59 180.87 99.28 180.87 88.03 218.84 102.66 218.84 109.59"/>
    <polygon class="k" points="218.84 120.97 180.87 116.82 180.87 105.52 218.84 114.01 218.84 120.97"/>
    <polygon class="j" points="180.87 122.46 180.87 131.89 180.87 131.9 180.87 153.17 218.84 125.39 180.87 122.46"/>
    <polygon class="d" points="160.13 108.28 180.87 99.28 180.87 88.03 160.13 99.98 160.13 108.28"/>
    <polygon class="i" points="218.84 98.05 180.87 81.96 180.87 70.71 218.84 91.12 218.84 98.05"/>
    <polygon class="f" points="160.13 95.8 180.87 81.96 180.87 70.71 160.13 88.43 160.13 95.8"/>
    <polygon class="c" points="160.13 120.31 180.87 116.82 180.87 105.52 160.13 112.91 160.13 120.31"/>
    <polygon class="g" points="160.13 124.95 180.87 153.17 180.87 131.9 180.87 122.46 160.13 124.95"/>
  </g>
</svg>