<?xml version="1.0" encoding="UTF-8"?>
<svg width="745px" height="816px" viewBox="0 0 745 816" version="1.1" xmlns="http://www.w3.org/2000/svg" xmlns:xlink="http://www.w3.org/1999/xlink">
    <!-- Generator: Sketch 51.3 (57544) - http://www.bohemiancoding.com/sketch -->
    <title>microsoft-sql-server</title>
    <desc>Created with Sketch.</desc>
    <defs>
        <linearGradient x1="25.8951071%" y1="81.4467075%" x2="38.3411716%" y2="73.4213015%" id="linearGradient-1">
            <stop stop-color="#909CA9" offset="0%"></stop>
            <stop stop-color="#EDEDEE" offset="100%"></stop>
        </linearGradient>
        <linearGradient x1="0.167947727%" y1="49.8457052%" x2="18.5944843%" y2="49.8457052%" id="linearGradient-2">
            <stop stop-color="#939FAB" offset="0%"></stop>
            <stop stop-color="#DCDEE1" offset="100%"></stop>
        </linearGradient>
        <radialGradient cx="44.3461988%" cy="43.8808738%" fx="44.3461988%" fy="43.8808738%" r="12.8105072%" gradientTransform="translate(0.443462,0.438809),scale(0.698399,1.000000),rotate(-171.457413),translate(-0.443462,-0.438809)" id="radialGradient-3">
            <stop stop-color="#EE352C" offset="0%"></stop>
            <stop stop-color="#A91D22" offset="100%"></stop>
        </radialGradient>
    </defs>
    <g id="Page-1" stroke="none" stroke-width="1" fill="none" fill-rule="evenodd">
        <g id="microsoft-sql-server" transform="translate(-1.000000, -1.000000)" fill-rule="nonzero">
            <g id="Group" transform="translate(0.747000, 0.770000)">
                <path d="M470.433837,380.771955 L307.187737,434.077582 L165.165906,496.759191 L125.433205,507.248706 C115.314109,516.87391 104.703966,526.622587 93.228374,536.493599 C80.642663,547.351257 68.920694,557.223976 59.911717,564.379151 C49.917801,572.276871 35.110714,587.083389 27.584551,596.459371 C16.355336,610.52562 7.471539,625.455611 3.646152,636.932341 C-3.14088,657.662718 0.192322,678.638334 13.271356,698.012215 C30.052304,722.689176 63.491865,747.860029 102.482021,765.011396 C122.349225,773.773996 155.787648,785.001504 180.958501,791.293506 C222.786829,801.905925 303.7322,813.381517 348.275227,815.110139 C357.281359,815.479989 369.374885,815.479989 369.86707,815.110139 C370.855423,814.491067 377.765359,801.289698 385.787121,784.879738 C413.179919,728.982316 432.921943,676.541 443.656128,631.751027 C450.072172,604.606313 455.130582,568.452053 458.460939,525.637079 C459.326388,513.667595 459.6951,473.565613 458.954831,459.991549 C457.843574,437.781772 455.869144,419.767801 452.786871,402.122542 C452.292979,399.530747 452.167799,397.185898 452.415883,397.062994 C452.908068,396.693144 454.388606,396.199821 474.501618,390.398866 L470.431561,380.775938 L470.431561,380.773093 L470.433837,380.773093 L470.433837,380.771955 Z M433.170027,402.613589 C434.650565,402.613589 438.597718,440.493626 439.584364,464.433163 C439.832448,469.491573 439.707268,472.823068 439.46146,472.823068 C438.475383,472.823068 418.608179,461.102237 404.420733,452.21844 C392.08083,444.444193 368.637461,428.896268 364.936116,425.935192 C363.699679,425.072019 363.822583,424.949115 373.942248,421.493009 C391.091908,415.692623 431.812962,402.613589 433.170027,402.613589 Z M350.004418,430.006956 C351.115675,430.006956 353.951571,431.60926 360.738603,435.805635 C386.156402,451.722841 420.70722,470.97268 435.513738,477.389862 C440.078256,479.363723 440.570441,478.622316 430.08434,485.780336 C407.627048,501.080177 379.615747,516.133072 345.313013,531.310578 C339.267957,534.025277 334.209547,536.122042 334.086643,536.122042 C333.840835,536.122042 334.578828,533.0392 335.564905,529.336717 C343.832475,498.610148 348.522173,467.516574 348.770257,442.591529 C348.893161,430.251626 348.893161,430.251626 350.004418,429.883483 C349.756334,430.006956 349.879238,430.006956 350.004418,430.006956 Z M332.85362,436.545904 C333.591613,437.285035 333.099428,464.925917 332.111644,472.45208 C329.890837,490.467758 326.435869,507.248137 320.761801,526.128695 C319.404167,530.690937 318.168299,534.5186 317.924198,534.764408 C317.42803,535.380635 300.523609,518.846633 294.971307,512.430589 C285.346103,501.324847 277.821078,490.219674 272.268207,479.362016 C269.430035,473.809145 264.98899,462.952056 265.358271,462.581068 C267.332132,461.224003 332.359728,436.05315 332.85362,436.545904 Z M252.154626,468.256843 C252.27753,468.256843 252.400434,468.256843 252.525614,468.379747 C252.771422,468.626693 253.636871,470.601692 254.37714,472.82193 C258.324293,483.557253 267.206952,499.350986 274.859433,509.469513 C283.249907,520.575255 294.232745,532.419559 303.361212,540.193237 C306.323995,542.66099 309.036987,545.004701 309.406268,545.375689 C310.148244,546.116527 310.394621,545.991916 290.28104,553.643259 C266.962851,562.527056 241.542776,571.410853 212.421925,580.787973 C205.465597,583.030693 198.515613,585.293046 191.572058,587.575005 C190.459663,587.945993 190.830651,587.328059 194.038673,582.270218 C208.474772,559.688884 230.437603,515.392234 242.777506,484.050576 C244.875409,478.621178 246.972743,473.192918 247.343731,471.958757 C247.837623,470.230135 248.453281,469.613908 250.056723,468.749597 C250.920465,468.504927 251.785345,468.256843 252.154626,468.256843 Z M227.478803,478.498274 C227.848084,478.746358 221.554944,491.947727 215.385277,504.040115 C203.415793,527.36058 190.336759,550.312902 172.815542,578.198454 C169.854466,583.009918 167.017432,587.453239 166.646444,587.946562 C166.030217,588.810873 165.782133,588.562789 163.808272,584.73854 C159.613035,576.47097 156.156929,565.858551 154.306541,556.110443 C152.455015,546.485239 152.826003,529.705429 154.924475,519.341094 C156.526779,511.691458 156.405013,511.814931 160.106358,509.963405 C175.900091,501.94335 226.984911,478.004951 227.478803,478.498274 Z M440.32634,487.136832 L440.32634,492.318715 C440.32634,519.834986 437.365264,557.592119 433.044847,585.109528 C432.304578,589.920992 431.685506,593.868145 431.564309,593.993325 C431.564309,593.993325 427.986437,593.007248 423.7912,591.77138 C405.283337,585.971563 385.170325,577.457616 367.031174,567.464838 C355.060552,560.924752 337.663946,550.188291 338.158407,549.694399 C338.279604,549.572064 343.463194,546.857365 349.50825,543.648774 C373.695871,531.063632 396.891156,517.490706 417.004168,504.041253 C424.531469,498.981705 435.881312,490.839315 438.35191,488.61737 L440.32634,487.136832 Z M134.317002,523.658097 C134.810325,523.658097 134.686852,524.645312 133.946583,529.087495 C133.452691,532.296655 132.836464,538.219376 132.591225,542.289433 C131.601734,560.305111 134.565086,573.632229 143.448883,591.893146 C145.916636,596.952694 147.892204,601.147931 147.767024,601.270266 C146.902713,602.011673 65.219918,625.950641 39.552897,632.982912 C31.903261,635.079677 25.241409,636.931203 24.745241,637.052969 C23.883206,637.301053 23.759164,637.178149 24.129014,635.078539 C26.966617,616.941664 40.787058,593.250211 60.03519,573.260103 C72.868416,559.934692 83.110416,552.161583 100.631633,542.165391 C113.217344,535.010216 132.589518,524.2766 134.070056,523.78157 C134.071194,523.658097 134.194098,523.658097 134.317002,523.658097 Z M326.806857,558.084304 C326.929761,557.9614 329.890837,559.566549 333.468709,561.663314 C359.874861,576.964293 396.644779,591.154584 427.984161,598.433801 L430.82404,599.051735 L426.874611,601.270266 C410.464651,610.402147 356.542797,632.858301 301.388489,653.465774 C293.366727,656.425712 285.470714,659.388495 283.9879,660.004722 C282.507362,660.620949 281.149728,660.991937 281.149728,660.869033 C281.149728,660.743853 283.372242,656.425712 286.208138,651.120925 C301.632021,622.247589 317.180515,587.081682 325.077097,562.64996 C326.066588,560.30568 326.681677,558.208915 326.806857,558.084304 Z M307.187737,564.501486 C307.312917,564.627235 306.324564,567.216185 305.089834,570.177261 C294.355649,596.212425 280.287124,624.594145 262.273153,656.427988 C257.708635,664.572654 253.882679,671.11274 253.757499,671.11274 C253.636302,671.11274 249.93325,668.890226 245.491636,666.176096 C219.331292,650.134848 196.134869,630.392824 180.95907,611.267027 L178.737125,608.552328 L189.964633,605.46721 C230.190657,594.486648 264.368211,582.641206 298.302233,568.081634 C303.115404,566.106635 307.064833,564.501486 307.187737,564.501486 Z M429.097694,607.071221 C429.097694,607.071221 429.221167,607.194694 429.097694,607.071221 C429.220598,609.909393 422.927458,635.32833 417.744437,653.711582 C413.426296,669.135465 409.722675,681.228991 402.937919,702.573888 C399.976843,711.953853 397.387324,719.725255 397.262144,719.725255 C397.13924,719.725255 396.398971,719.602351 395.658702,719.357112 C359.012257,712.691846 326.190061,703.438199 295.342295,691.100003 C286.703737,687.643897 274.365541,682.091026 273.625272,681.474799 C273.379464,681.225577 280.783292,677.772885 290.160412,673.700552 C346.303073,649.145926 404.543068,621.259236 424.531469,609.292028 C426.87518,607.810921 428.726706,607.071221 429.097694,607.071221 Z M147.64412,616.696425 C147.891066,616.942233 132.220237,639.523567 110.255699,670.247291 C102.606063,680.982614 93.722266,693.567756 90.39134,698.256316 C87.059276,702.945445 82.000866,710.349273 79.162694,714.791456 L73.977966,722.81208 L68.425095,718.12352 C61.885009,712.692984 50.534597,701.095057 45.475618,694.678444 C34.863199,681.477075 27.708024,667.53373 24.869852,654.825684 C23.512218,648.901825 23.512218,645.939042 24.744672,645.570899 C26.59506,645.077576 59.540729,637.303329 90.390202,630.145309 C107.541569,626.198156 127.405928,621.509596 134.56281,619.782112 C141.720261,618.051783 147.521216,616.696425 147.64412,616.696425 Z M163.437284,622.742619 L167.384437,627.184233 C185.154876,647.050299 203.292889,661.736189 225.256289,674.566001 C229.205718,676.788515 232.166225,678.761238 231.918141,678.886987 C231.056675,679.503214 155.663037,706.276371 120.744076,718.369328 C101.126094,725.278695 84.960804,730.830997 84.839038,730.830997 C84.716134,730.830997 83.604877,730.091866 82.369009,729.227555 L80.14934,727.622975 L83.727212,722.441661 C95.325139,705.660144 109.887556,687.275754 141.598495,649.024729 L163.437284,622.742619 Z M261.904441,693.197337 C262.025638,693.075002 267.455036,695.047725 274.117457,697.518323 C290.160412,703.563379 302.86732,707.387628 319.896921,711.706907 C340.873675,717.013401 371.22698,722.195853 389.119754,723.675822 C391.834453,723.92163 393.314991,724.169714 392.821099,724.540133 C391.95565,725.034025 373.819344,731.080219 360.492795,735.275456 C339.267957,741.937308 274.489014,761.062536 221.678417,776.240611 C211.930309,779.078214 203.539266,781.423063 203.045943,781.545398 C201.813489,781.793482 197.740018,780.681087 197.740018,780.187764 C197.740018,779.942525 200.701094,776.117707 204.280104,771.921901 C222.047129,750.698201 239.693526,727.007886 254.37714,704.550594 C258.447766,698.37922 261.904441,693.32081 261.904441,693.197337 Z M240.185711,693.81584 C240.308615,693.938744 231.54886,708.004424 216.250157,732.188631 C209.708933,742.430062 202.428578,754.028558 199.836783,758.100891 C197.36903,762.049182 193.667685,768.219987 191.57092,771.673817 L187.99191,777.967526 L186.141522,777.473634 C181.698201,776.239473 150.481154,765.256635 142.213584,761.925709 C131.971584,757.853376 121.360303,752.919008 113.462583,748.723771 C103.592709,743.417277 91.254513,735.519557 92.24059,735.274318 C92.486967,735.151414 109.391957,730.584051 129.750208,725.032887 C183.796104,710.347566 213.77899,701.834757 233.399817,695.665659 C236.978827,694.554971 240.062807,693.69066 240.185711,693.81584 Z M393.807176,729.843782 L393.93008,729.843782 C394.423972,731.079081 374.43614,786.604377 367.15294,804.125025 C365.551205,808.073316 364.936116,809.062238 364.070667,808.936489 C361.972764,808.815292 332.977093,804.742959 315.330127,802.151164 C284.607541,797.462604 233.029398,788.453627 220.074406,785.493689 L217.11333,784.877462 L235.496013,780.67938 C274.982337,771.795583 293.984092,766.984119 313.232224,761.061398 C337.541042,753.658139 361.603483,744.403354 385.910025,733.052373 C389.734843,731.32432 392.943434,729.967255 393.807176,729.843782 Z" id="Shape" fill="url(#linearGradient-1)"></path>
                <path d="M302.129327,0.235566 C299.414628,-0.132577 255.609594,15.661156 227.354192,27.135041 C189.225502,42.684104 159.613604,57.49176 141.35098,70.321572 C134.565655,75.135881 126.050001,83.64869 124.694643,86.979616 C124.20132,88.213777 123.953236,89.694315 123.953236,91.174853 L140.488376,106.845682 L179.848951,119.431393 L273.502937,136.21291 L380.604669,154.598438 L381.715926,145.344222 C381.346645,145.344222 381.098561,145.221318 380.731556,145.221318 L366.661324,142.999373 L363.825428,137.940963 C349.264718,112.27508 333.224039,80.440099 323.846919,58.970022 C316.567702,42.311978 309.657197,23.064984 305.831241,9.244543 C303.733338,0.854069 303.48753,0.360746 302.132172,0.237842 L302.132172,0.234997 L302.129327,0.234997 L302.129327,0.235566 Z M300.152621,6.530413 L300.279508,6.530413 C300.400705,6.652179 300.894597,10.109423 301.389058,14.178911 C303.484685,31.456027 307.312917,48.111226 313.357973,66.126904 C317.922491,79.700399 317.922491,78.960699 312.617704,77.35555 C300.031993,73.90172 243.642955,64.153612 202.800704,58.477837 C196.260618,57.613526 190.707747,56.750353 190.707747,56.627449 C190.214424,56.134126 220.19731,40.462159 233.400386,34.294199 C250.304807,26.518814 296.69936,7.14664 300.152621,6.530413 Z M181.204878,61.808763 L186.019187,63.411067 C212.176117,72.296571 277.941706,84.882851 314.220577,87.843927 C318.291203,88.214346 321.747878,88.585334 321.869075,88.585334 C321.991979,88.708238 318.539287,90.559195 314.095966,92.65596 C296.576456,101.416853 277.326617,112.152176 264.000068,120.419746 C260.052915,122.886361 256.472767,124.861929 255.980582,124.861929 C255.48669,124.861929 252.896602,124.368037 250.181903,123.997618 L245.246397,123.256211 L232.90877,111.163254 C211.191747,90.064734 194.163284,73.777678 187.623198,67.606873 L181.204878,61.808763 Z M176.271079,65.633012 L193.668823,87.350604 C203.168847,99.319519 212.793482,111.040919 214.893092,113.631007 C216.988719,116.22394 218.717341,118.322412 218.594437,118.445316 C218.100545,118.815166 193.424153,114.001995 180.342843,111.042057 C166.89339,107.95637 161.341088,106.475832 153.074087,103.885744 L146.287055,101.663799 L146.287055,99.935177 C146.409959,91.667607 156.899474,79.329411 174.667068,66.744838 L176.271079,65.633012 Z M324.092158,95.247186 C324.586619,95.247186 325.201708,96.357305 326.682246,99.6888 C330.877483,108.942447 343.959362,133.86863 347.164539,138.680094 C348.154599,140.285812 349.879238,140.408716 332.483201,137.570544 C290.654873,130.782374 277.203713,128.563843 277.203713,128.316897 C277.203713,128.193993 278.437874,127.329682 280.041885,126.465371 C292.998584,119.310196 306.077049,110.178315 317.676683,100.430207 C320.514855,98.085358 323.106081,95.864551 323.598266,95.493563 C323.72117,95.247186 323.969254,95.124282 324.092158,95.247186 Z" id="Shape" fill="url(#linearGradient-2)"></path>
                <path d="M125.55554,85.252132 C125.55554,85.252132 122.842548,89.572549 125.433205,95.989162 C127.038923,99.936315 131.726914,104.747779 137.031701,109.684423 C137.031701,109.684423 191.940201,163.235289 198.60376,170.886632 C228.956496,205.928497 242.160141,240.478177 243.394302,288.10746 C244.134571,318.70828 238.333616,345.607186 223.898086,376.825371 C198.232772,432.845128 144.063403,494.664133 60.528513,563.269601 L72.746081,559.197268 C80.642663,553.273409 91.377986,546.982545 116.548839,533.162104 C174.664792,501.325416 240.062238,472.08223 320.266771,441.975302 C435.75727,398.540687 625.657606,347.702813 733.745415,331.170518 L744.975768,329.441896 L743.247146,326.727197 C733.377841,311.426218 726.589102,301.926194 718.444436,291.808236 C694.755259,262.441008 666.007103,238.627789 630.83892,218.884627 C582.469937,191.863386 519.908956,170.763728 440.694483,155.092899 C425.764492,152.130116 392.942296,146.45491 366.290336,142.383146 C309.776687,133.624529 273.253146,127.577197 233.028829,120.667261 C218.593299,118.19837 196.998042,114.497594 182.684847,111.413614 C175.281588,109.807896 161.093004,106.47697 149.987831,102.652152 C141.104034,99.195477 128.270239,95.740509 125.55554,85.252132 Z M157.392228,116.101036 C157.513994,115.97927 159.487855,116.717263 162.080788,117.581574 C166.769348,119.183878 172.814973,121.035404 179.973562,123.010972 C185.38914,124.50058 190.818391,125.940022 196.260618,127.329113 C203.663877,129.178932 209.832406,130.906985 209.95531,130.906985 C210.820759,131.771296 223.283566,171.623487 227.478803,186.924466 C229.080538,192.725421 230.316975,197.659789 230.193502,197.659789 C230.066615,197.784969 228.711257,195.685928 227.107815,192.848325 C212.670578,167.429388 189.843436,141.64117 163.437284,120.910793 C159.984023,118.445316 157.392228,116.22394 157.392228,116.101036 Z M218.099976,132.881984 C218.717341,132.881984 221.43204,133.252403 224.761828,133.992103 C245.738582,138.680663 283.37338,145.837545 307.433545,149.909878 C311.505878,150.526105 314.715038,151.268081 314.715038,151.51332 C314.715038,151.761404 313.232793,152.623439 311.381267,153.611792 C307.31121,155.708557 290.898974,165.455527 285.471283,169.15801 C271.773746,178.288753 259.436119,188.159765 250.551184,197.043562 C246.973312,200.622572 243.887056,203.583648 243.887056,203.583648 C243.887056,203.583648 243.149063,201.486883 242.529422,198.89395 C238.090084,181.742583 228.834161,156.323646 220.443687,138.433148 C219.086053,135.596114 217.974796,133.004319 217.974796,132.758511 C217.974796,133.004888 217.974796,132.881984 218.099976,132.881984 Z M324.955331,153.241373 C325.6956,153.487181 326.929761,157.682987 329.396945,166.936634 C333.96317,184.829408 336.061073,204.818378 335.320804,223.450283 C335.07272,228.632735 334.826912,233.444199 334.578828,234.062702 L334.209547,235.295156 L327.793503,233.198391 C314.590427,229.003154 293.121488,222.708876 274.737098,217.527562 C264.247014,214.68939 255.735343,212.098164 255.735343,211.851787 C255.735343,211.11038 271.036322,195.810539 277.57527,190.01186 C290.035232,179.028453 323.844074,152.870385 324.955331,153.241373 Z M333.469278,154.473827 C333.840266,154.105684 384.553529,162.864301 407.627617,167.307053 C424.780122,170.637979 449.704029,175.821 451.183998,176.438934 C451.924267,176.684742 449.332472,178.16528 441.064902,181.866625 C408.49079,196.551377 384.304876,209.752177 360.246418,225.794563 C353.953278,229.9898 348.646784,233.444199 348.52388,233.444199 C348.400976,233.444199 348.277503,229.866896 348.277503,225.547617 C348.277503,202.104248 343.588374,178.412795 334.949247,158.423825 C334.086074,156.449395 333.345805,154.599007 333.469278,154.473827 Z M464.632882,180.387225 C465.00387,180.757075 463.398721,190.752698 461.918183,196.674281 C457.476569,215.059809 445.508223,242.330841 430.826316,267.994448 C428.232814,272.560104 425.889103,276.262018 425.64045,276.384922 C425.396349,276.507826 422.064285,274.6563 418.238329,272.435493 C403.925703,264.045019 387.638647,256.148437 369.869346,248.74404 C364.935547,246.647275 360.615699,244.918653 360.492226,244.673983 C359.626777,243.932576 399.359478,217.650466 420.336232,205.064755 C436.994276,194.947366 464.13899,179.892764 464.632882,180.387225 Z M474.010002,181.867194 C475.121259,181.867194 497.578551,188.03743 509.298813,191.492398 C538.29676,200.130387 571.611141,212.34511 593.328164,222.216122 L602.334296,226.289593 L596.043432,227.768993 C542.987027,239.983716 497.578551,254.052241 453.774086,271.819835 C450.195645,273.300373 446.987054,274.534534 446.742953,274.534534 C446.494869,274.534534 447.72903,271.696931 449.333041,268.240825 C462.536117,240.2318 471.050064,210.988045 473.145691,186.061862 C473.27144,183.717013 473.639014,181.867194 474.010002,181.867194 Z M250.42828,233.198391 C250.797561,232.827403 267.949497,236.900305 277.203713,239.489255 C291.269962,243.439253 321.129375,253.4326 321.129375,254.174007 C321.129375,254.296911 317.799018,257.135083 313.851865,260.591189 C297.687713,274.040642 282.139219,288.228657 263.506176,306.244335 C257.953305,311.551967 253.265883,315.870108 253.020075,315.870108 C252.771991,315.870108 252.650794,315.128132 252.771991,314.141486 C255.609594,293.411109 254.994505,266.759718 251.045645,239.737339 C250.674088,236.281233 250.304807,233.321295 250.42828,233.198391 Z M610.851657,233.569379 C611.095758,233.814618 602.953368,246.647275 597.771485,253.926492 C590.369364,264.537773 579.507723,278.606867 554.953097,309.454064 C541.999812,325.739982 527.437395,344.126648 522.627069,350.295746 C517.689287,356.464844 513.61923,361.646158 513.49405,361.646158 C513.371146,361.646158 511.769411,359.426489 510.040789,356.712359 C496.220348,335.981982 479.685208,317.8434 460.066088,301.556344 C456.364743,298.470657 452.294686,295.139162 450.937052,294.151947 C449.579418,293.165301 448.468161,292.178086 448.468161,292.055182 C448.468161,291.685901 469.442639,282.676355 485.36269,276.261449 C513.24938,264.908761 551.249476,251.336404 579.755238,242.574942 C594.685798,237.886951 610.603573,233.321295 610.851657,233.569379 Z M620.351681,236.035425 C620.843866,235.91309 623.806649,237.393628 627.38509,239.489255 C657.369683,256.640622 686.734635,278.728633 709.933903,301.432871 C716.472851,307.850053 732.637003,324.631001 732.388919,324.753905 C732.388919,324.753905 726.713144,325.247228 720.051292,325.739982 C668.103868,329.68998 601.59801,340.669973 537.680533,356.093287 C533.362392,357.079364 529.538143,357.943675 529.290059,357.943675 C529.045958,357.943675 533.856284,353.132211 539.903616,347.333532 C577.413234,311.18041 594.565739,288.353268 614.799948,247.633352 C617.636982,241.588865 620.105873,236.406413 620.351681,236.035425 C620.228777,236.035425 620.228777,236.035425 620.351681,236.035425 Z M345.561097,264.170199 C347.289719,264.538342 363.330398,272.067919 375.422217,278.112406 C386.52739,283.663001 403.186003,292.549074 404.049176,293.288205 C404.17208,293.411109 398.248221,296.496227 390.97128,300.075237 C367.772012,311.673733 347.907084,322.654295 327.176138,335.240575 C321.253986,338.819585 316.31848,341.782368 316.195576,341.782368 C315.701684,341.782368 315.824588,341.2862 319.156652,335.240575 C330.262394,315.006366 339.145053,290.82159 344.205739,267.253041 C344.697355,265.402653 345.191816,264.170199 345.561097,264.170199 Z M329.519849,267.130137 C329.890837,267.501125 325.6956,282.676924 323.105512,290.944494 C318.044826,306.615323 309.531448,326.233874 301.265585,341.040961 C299.288879,344.494222 296.328372,349.55377 294.724361,352.391373 L291.640381,357.326879 L284.730445,350.665596 C276.710959,342.891349 270.169735,338.079316 261.780968,333.759468 C258.447197,332.033691 255.857109,330.551446 255.857109,330.306207 C255.857109,329.318992 276.956767,310.193764 293.120919,296.373892 C304.718846,286.378838 329.150568,266.760287 329.519849,267.130137 Z M427.617725,307.479634 L433.664488,311.426787 C447.480946,320.435764 463.768002,332.403541 476.233085,342.891349 C483.264218,348.689459 496.836575,360.907027 499.55355,363.868103 L501.031812,365.473821 L491.039603,368.310855 C434.525954,383.979977 390.8461,397.923322 339.885322,416.679838 C334.209547,418.776603 329.396945,420.504087 329.025957,420.504087 C328.287964,420.504087 327.668892,421.120314 340.379783,409.397776 C372.955602,379.416597 401.827231,346.345748 423.297877,314.140917 L427.617725,307.479634 Z M401.828369,313.895678 C402.074177,314.141486 385.170325,337.955274 375.051229,351.405296 C362.95941,367.446544 341.488764,394.344881 326.682246,411.86496 C320.514286,419.146453 315.209499,425.192078 314.961415,425.31612 C314.590427,425.439024 314.467523,423.588636 314.467523,420.750464 C314.467523,405.818766 310.643274,389.90156 303.979146,376.329772 C301.140974,370.653997 300.647082,369.296363 301.266154,368.680136 C303.609865,366.581664 339.516041,346.098802 362.219141,333.884079 C377.519551,325.740551 401.455105,313.648732 401.828369,313.895678 Z M245.861486,352.146703 C246.232474,352.146703 249.070646,353.626103 252.279237,355.354725 C260.175819,359.672866 267.209228,364.484899 273.501799,369.668489 C273.747607,369.914297 270.540723,372.506661 266.345486,375.589503 C254.622948,383.979977 236.855354,397.430568 226.492157,405.698138 C215.631085,414.335558 215.263511,414.581935 216.495965,412.731547 C224.640631,400.26874 228.710688,393.235331 233.031105,384.22863 C236.855354,376.209144 240.679603,366.707413 243.394302,358.439843 C244.380948,354.861402 245.615678,352.146703 245.861486,352.146703 Z M287.445713,384.720815 C288.060802,384.599049 288.803347,385.70803 292.133135,390.644674 C299.166544,401.130775 304.595942,415.1993 305.955283,426.55085 L306.199384,429.019741 L289.297239,435.559827 C259.064562,447.280658 231.180148,458.880292 212.299021,467.516005 C206.994803,469.984896 197.740018,474.425941 191.694962,477.389293 C185.648199,480.472135 180.712693,482.816984 180.712693,482.69408 C180.712693,482.571176 184.536942,479.733004 189.225502,476.276898 C226.121738,449.502603 258.078485,420.134237 282.015746,390.768147 C284.607541,387.68246 286.952959,384.844288 287.197629,384.721384 L287.445713,384.720815 Z M268.320485,389.410513 C268.814377,389.903836 254.748128,405.820473 245.123493,415.568012 C221.309136,439.877399 197.741156,458.880292 168.496832,477.389293 C164.795487,479.733004 161.464561,481.829769 161.093573,482.077853 C160.229262,482.571176 161.339381,481.336446 174.172607,467.393101 C182.317273,458.632208 188.485802,451.228949 195.519211,442.099344 C200.207771,436.054288 201.072082,435.189977 207.859683,430.375668 C225.998265,417.296065 267.826593,388.916052 268.320485,389.410513 Z" id="Shape" fill="url(#radialGradient-3)"></path>
            </g>
        </g>
    </g>
</svg>