<svg version="1.2" xmlns="http://www.w3.org/2000/svg" xmlns:xlink="http://www.w3.org/1999/xlink" overflow="visible" preserveAspectRatio="none" viewBox="0 0 24 24" width="34" height="34"><g><path xmlns:default="http://www.w3.org/2000/svg" id="sign-out" d="M10.48,17.65c-0.01-0.05-0.01-0.09,0-0.14c0-0.04-0.03-0.08-0.07-0.09c-0.03-0.01-0.06-0.03-0.08-0.06  c-0.04-0.02-0.08-0.02-0.12,0H6.82c-0.92,0-1.67-0.75-1.67-1.67l0,0V8.34c0-0.92,0.75-1.67,1.67-1.67l0,0h3.33  c0.08,0,0.15-0.02,0.21-0.07c0.05-0.05,0.09-0.12,0.1-0.2c0.01-0.08,0.01-0.16,0-0.24c0.01-0.09,0.01-0.19,0-0.28  c0-0.11,0-0.18,0-0.21c-0.01-0.18-0.15-0.32-0.33-0.33H6.82C6.02,5.32,5.26,5.64,4.7,6.22C4.13,6.77,3.81,7.54,3.82,8.34v7.33  c-0.01,0.8,0.31,1.57,0.88,2.12c0.55,0.57,1.32,0.89,2.12,0.88h3.33c0.08,0,0.15-0.02,0.21-0.07c0.05-0.05,0.09-0.12,0.1-0.2  c0.01-0.08,0.01-0.16,0-0.24c0.01-0.09,0.01-0.19,0-0.28c0-0.11,0-0.18,0-0.21l0,0L10.48,17.65z M20.14,11.99  c0-0.18-0.07-0.35-0.2-0.47l-5.66-5.66c-0.27-0.25-0.69-0.24-0.95,0.03c-0.11,0.12-0.18,0.28-0.18,0.44v3H8.48  c-0.37,0.01-0.66,0.3-0.67,0.67v4c0.01,0.37,0.3,0.66,0.67,0.67h4.66v3c0,0.36,0.29,0.66,0.65,0.67c0.18,0,0.35-0.07,0.48-0.2  l5.71-5.68c0.13-0.12,0.2-0.29,0.2-0.47l0,0H20.14z" style="fill: rgb(255, 255, 255);" vector-effect="non-scaling-stroke"/></g></svg>